<svg width="320" height="32" viewBox="0 0 320 32" fill="none" xmlns="http://www.w3.org/2000/svg">
<g clip-path="url(#clip0_117_5584)">
<path d="M29.6313 -0.000488281H2.3625C1.05625 -0.000488281 0 1.03076 0 2.30576V29.687C0 30.962 1.05625 31.9995 2.3625 31.9995H29.6313C30.9375 31.9995 32 30.962 32 29.6933V2.30576C32 1.03076 30.9375 -0.000488281 29.6313 -0.000488281ZM9.49375 27.2683H4.74375V11.9933H9.49375V27.2683ZM7.11875 9.91201C5.59375 9.91201 4.3625 8.68076 4.3625 7.16201C4.3625 5.64326 5.59375 4.41201 7.11875 4.41201C8.6375 4.41201 9.86875 5.64326 9.86875 7.16201C9.86875 8.67451 8.6375 9.91201 7.11875 9.91201ZM27.2687 27.2683H22.525V19.8433C22.525 18.0745 22.4937 15.7933 20.0562 15.7933C17.5875 15.7933 17.2125 17.7245 17.2125 19.7183V27.2683H12.475V11.9933H17.025V14.0808H17.0875C17.7188 12.8808 19.2688 11.612 21.575 11.612C26.3813 11.612 27.2687 14.7745 27.2687 18.887V27.2683Z" fill="white"/>
</g>
<g clip-path="url(#clip1_117_5584)">
<path fill-rule="evenodd" clip-rule="evenodd" d="M94.4578 8.72997C92.8058 7.15437 90.6011 6.29602 88.32 6.33129C84.1458 6.33129 80.6007 9.14736 79.3367 12.9394C78.6665 14.9265 78.6665 17.0783 79.3367 19.0655H79.3426C80.6125 22.8516 84.1517 25.6677 88.3259 25.6677C90.4806 25.6677 92.3304 25.1166 93.7641 24.1431V24.1392C95.4514 23.0221 96.6037 21.2643 96.9623 19.2772H88.32V13.1158H103.412C103.6 14.1858 103.688 15.2794 103.688 16.367C103.688 21.2335 101.949 25.3478 98.9228 28.1345L98.9259 28.1369C96.2744 30.5826 92.6353 31.9995 88.32 31.9995C82.2704 31.9995 76.7381 28.5896 74.022 23.1867C71.7527 18.6657 71.7527 13.3392 74.022 8.8182C76.7382 3.40942 82.2704 -0.000508693 88.32 -0.000508693C92.2943 -0.0475416 96.1333 1.44575 99.0259 4.1619L94.4578 8.72997Z" fill="white"/>
</g>
<g clip-path="url(#clip2_117_5584)">
<path d="M176 15.9995C176 7.16295 168.837 -0.000488281 160 -0.000488281C151.163 -0.000488281 144 7.16295 144 15.9995C144 23.9855 149.851 30.6048 157.5 31.8051V20.6245H153.438V15.9995H157.5V12.4745C157.5 8.46451 159.889 6.24951 163.543 6.24951C165.293 6.24951 167.125 6.56201 167.125 6.56201V10.4995H165.108C163.12 10.4995 162.5 11.7329 162.5 12.9995V15.9995H166.938L166.228 20.6245H162.5V31.8051C170.149 30.6048 176 23.9855 176 15.9995Z" fill="white"/>
</g>
<path fill-rule="evenodd" clip-rule="evenodd" d="M232 -0.000488281C223.167 -0.000488281 216 7.16654 216 15.9995C216 24.8325 223.167 31.9995 232 31.9995C240.816 31.9995 248 24.8325 248 15.9995C248 7.16654 240.816 -0.000488281 232 -0.000488281ZM242.568 7.37478C244.477 9.70016 245.623 12.6676 245.657 15.878C245.206 15.7913 240.694 14.8715 236.147 15.4442C236.043 15.2186 235.957 14.9756 235.853 14.7327C235.575 14.0733 235.263 13.3965 234.95 12.7544C239.983 10.7067 242.273 7.75656 242.568 7.37478ZM232 2.3596C235.471 2.3596 238.646 3.66112 241.059 5.79561C240.816 6.14268 238.75 8.9019 233.892 10.724C231.653 6.61122 229.171 3.24463 228.79 2.72402C229.813 2.48107 230.889 2.3596 232 2.3596ZM226.187 3.64376C226.551 4.12966 228.981 7.51361 231.254 11.5396C224.868 13.2403 219.228 13.2056 218.62 13.2056C219.505 8.97131 222.369 5.44853 226.187 3.64376ZM218.325 16.0169C218.325 15.878 218.325 15.7392 218.325 15.6004C218.915 15.6177 225.544 15.7045 232.364 13.6568C232.764 14.4203 233.128 15.2012 233.475 15.9821C233.302 16.0342 233.111 16.0863 232.937 16.1383C225.892 18.4116 222.143 24.6242 221.831 25.1448C219.662 22.7327 218.325 19.5223 218.325 16.0169ZM232 29.6741C228.842 29.6741 225.926 28.5982 223.618 26.7934C223.861 26.2902 226.638 20.9453 234.343 18.2555C234.377 18.2381 234.395 18.2381 234.43 18.2208C236.356 23.2012 237.137 27.3834 237.345 28.5808C235.696 29.2923 233.892 29.6741 232 29.6741ZM239.618 27.3314C239.479 26.4984 238.75 22.5071 236.963 17.596C241.25 16.9192 244.998 18.0299 245.466 18.1861C244.876 21.9865 242.69 25.2663 239.618 27.3314Z" fill="white"/>
<g clip-path="url(#clip3_117_5584)">
<path d="M304 2.88076C308.275 2.88076 308.781 2.89951 310.463 2.97451C312.025 3.04326 312.869 3.30576 313.431 3.52451C314.175 3.81201 314.713 4.16201 315.269 4.71826C315.831 5.28076 316.175 5.81201 316.463 6.55576C316.681 7.11826 316.944 7.96826 317.013 9.52451C317.088 11.212 317.106 11.7183 317.106 15.987C317.106 20.262 317.088 20.7683 317.013 22.4495C316.944 24.012 316.681 24.8558 316.463 25.4183C316.175 26.162 315.825 26.6995 315.269 27.2558C314.706 27.8183 314.175 28.162 313.431 28.4495C312.869 28.6683 312.019 28.9308 310.463 28.9995C308.775 29.0745 308.269 29.0933 304 29.0933C299.725 29.0933 299.219 29.0745 297.538 28.9995C295.975 28.9308 295.131 28.6683 294.569 28.4495C293.825 28.162 293.288 27.812 292.731 27.2558C292.169 26.6933 291.825 26.162 291.538 25.4183C291.319 24.8558 291.056 24.0058 290.988 22.4495C290.913 20.762 290.894 20.2558 290.894 15.987C290.894 11.712 290.913 11.2058 290.988 9.52451C291.056 7.96201 291.319 7.11826 291.538 6.55576C291.825 5.81201 292.175 5.27451 292.731 4.71826C293.294 4.15576 293.825 3.81201 294.569 3.52451C295.131 3.30576 295.981 3.04326 297.538 2.97451C299.219 2.89951 299.725 2.88076 304 2.88076ZM304 -0.000488281C299.656 -0.000488281 299.113 0.0182617 297.406 0.0932617C295.706 0.168262 294.538 0.443262 293.525 0.837012C292.469 1.24951 291.575 1.79326 290.688 2.68701C289.794 3.57451 289.25 4.46826 288.838 5.51826C288.444 6.53701 288.169 7.69951 288.094 9.39951C288.019 11.112 288 11.6558 288 15.9995C288 20.3433 288.019 20.887 288.094 22.5933C288.169 24.2933 288.444 25.462 288.838 26.4745C289.25 27.5308 289.794 28.4245 290.688 29.312C291.575 30.1995 292.469 30.7495 293.519 31.1558C294.538 31.5495 295.7 31.8245 297.4 31.8995C299.106 31.9745 299.65 31.9933 303.994 31.9933C308.338 31.9933 308.881 31.9745 310.588 31.8995C312.288 31.8245 313.456 31.5495 314.469 31.1558C315.519 30.7495 316.413 30.1995 317.3 29.312C318.188 28.4245 318.738 27.5308 319.144 26.4808C319.538 25.462 319.813 24.2995 319.888 22.5995C319.963 20.8933 319.981 20.3495 319.981 16.0058C319.981 11.662 319.963 11.1183 319.888 9.41201C319.813 7.71201 319.538 6.54326 319.144 5.53076C318.75 4.46826 318.206 3.57451 317.313 2.68701C316.425 1.79951 315.531 1.24951 314.481 0.843262C313.463 0.449512 312.3 0.174512 310.6 0.0995117C308.888 0.0182617 308.344 -0.000488281 304 -0.000488281Z" fill="white"/>
<path d="M304 7.78076C299.463 7.78076 295.781 11.462 295.781 15.9995C295.781 20.537 299.463 24.2183 304 24.2183C308.538 24.2183 312.219 20.537 312.219 15.9995C312.219 11.462 308.538 7.78076 304 7.78076ZM304 21.3308C301.056 21.3308 298.669 18.9433 298.669 15.9995C298.669 13.0558 301.056 10.6683 304 10.6683C306.944 10.6683 309.331 13.0558 309.331 15.9995C309.331 18.9433 306.944 21.3308 304 21.3308Z" fill="white"/>
<path d="M314.462 7.45568C314.462 8.51818 313.6 9.37443 312.544 9.37443C311.481 9.37443 310.625 8.51193 310.625 7.45568C310.625 6.39318 311.488 5.53693 312.544 5.53693C313.6 5.53693 314.462 6.39943 314.462 7.45568Z" fill="white"/>
</g>
<defs>
<clipPath id="clip0_117_5584">
<rect width="32" height="32" fill="white" transform="translate(0 -0.000488281)"/>
</clipPath>
<clipPath id="clip1_117_5584">
<rect width="32" height="32" fill="white" transform="translate(72 -0.000488281)"/>
</clipPath>
<clipPath id="clip2_117_5584">
<rect width="32" height="32" fill="white" transform="translate(144 -0.000488281)"/>
</clipPath>
<clipPath id="clip3_117_5584">
<rect width="32" height="32" fill="white" transform="translate(288 -0.000488281)"/>
</clipPath>
</defs>
</svg>
