<svg width="206" height="130" viewBox="0 0 206 130" fill="none" xmlns="http://www.w3.org/2000/svg">
<path fill-rule="evenodd" clip-rule="evenodd" d="M101.773 31.0998C101.539 31.244 101.168 31.2934 100.949 31.2091C100.729 31.1248 100.368 31.1687 100.148 31.3067C99.9269 31.4447 99.6073 31.5692 99.4373 31.5834C99.2672 31.5976 98.8848 31.7053 98.5871 31.823C97.439 32.2772 96.9561 32.4476 96.7477 32.4736C96.6287 32.4881 96.3696 32.6616 96.1718 32.8592C95.7028 33.3277 96.0648 33.8896 96.8355 33.8896C97.4912 33.8896 98.1429 35.1315 97.8656 35.8529C97.6343 36.4553 99.9804 36.9892 102.588 36.928C103.746 36.9008 104.206 36.8301 103.611 36.7705C103.016 36.7113 102.042 36.5692 101.447 36.4553L100.365 36.2478L101.91 36.0341C103.704 35.7862 105.231 35.9884 104.954 36.4374C104.848 36.6087 104.93 36.6924 105.137 36.6239C105.873 36.3784 105.468 35.8927 104.317 35.6413C103.055 35.3659 99.8079 35.5299 98.8456 35.9177C98.4199 36.0891 98.3188 36.0511 98.4857 35.7812C98.6134 35.5753 98.5602 35.2171 98.3679 34.9855C97.6891 34.1685 102.131 33.5972 104.64 34.1787C105.946 34.4816 106.441 34.828 105.863 35.0346C105.57 35.1396 105.569 35.2992 105.86 35.7642C106.065 36.0918 106.355 36.3599 106.505 36.3599C106.655 36.3599 106.628 36.1789 106.444 35.9578C105.903 35.3069 106.379 34.2636 107.375 33.9168C108.611 33.4864 108.426 32.6178 107.009 32.2006C106.415 32.0255 105.755 31.7702 105.543 31.6328C105.33 31.4954 105.011 31.4725 104.834 31.5821C104.656 31.6918 104.315 31.6186 104.074 31.4194C103.834 31.2202 103.486 31.1508 103.302 31.265C103.117 31.3793 102.793 31.3296 102.582 31.1548C102.36 30.9708 102.02 30.9476 101.773 31.0998ZM101.089 31.8029C101.394 32.108 101.529 32.0941 101.752 31.7347C101.905 31.4861 102.139 31.3907 102.271 31.5222C102.403 31.6541 102.323 31.8776 102.094 32.0194C101.864 32.1608 101.766 32.4217 101.876 32.5986C101.986 32.7759 101.932 33.0087 101.758 33.1161C101.584 33.2236 101.322 32.9902 101.177 32.5971C101.031 32.204 100.793 31.9277 100.646 31.9829C100.5 32.0382 100.33 31.9338 100.269 31.7513C100.119 31.3005 100.617 31.3317 101.089 31.8029ZM103.966 31.8826C103.966 32.0438 103.817 32.2256 103.634 32.2865C103.451 32.3473 103.302 32.1657 103.302 31.8826C103.302 31.5994 103.451 31.4179 103.634 31.4787C103.817 31.5395 103.966 31.7214 103.966 31.8826ZM99.5918 32.1914C99.5918 32.4461 99.4357 32.6545 99.245 32.6545C99.0193 32.6545 99.0462 32.8342 99.3223 33.168C99.6858 33.608 99.6802 33.6593 99.2827 33.5274C98.8511 33.3839 98.6295 32.4893 98.8941 31.9598C99.0994 31.5497 99.5918 31.7134 99.5918 32.1914ZM105.465 32.3896C105.465 32.5637 105.294 32.649 105.085 32.5795C104.876 32.5097 104.463 32.7413 104.168 33.0939C103.726 33.6216 103.63 33.646 103.621 33.2326C103.615 32.9562 103.924 32.5199 104.306 32.2633C105.021 31.7841 105.465 31.8326 105.465 32.3896ZM103.1 32.8188C103.005 33.068 102.802 33.2721 102.65 33.2721C102.333 33.2721 102.277 32.5455 102.572 32.2513C102.901 31.9218 103.286 32.3349 103.1 32.8188ZM98.3553 32.6545C98.3553 32.8244 98.1466 32.9633 97.8915 32.9633C97.6365 32.9633 97.4278 32.8244 97.4278 32.6545C97.4278 32.4847 97.6365 32.3457 97.8915 32.3457C98.1466 32.3457 98.3553 32.4847 98.3553 32.6545ZM100.756 33.0244C100.602 33.4873 100.066 33.3545 99.9557 32.8262C99.8871 32.4961 100.011 32.4072 100.355 32.5394C100.63 32.6446 100.81 32.8629 100.756 33.0244ZM107.398 32.8447C108.059 33.0779 108.112 33.5809 107.475 33.5809C107.22 33.5809 107.011 33.4419 107.011 33.2721C107.011 33.1023 106.741 32.9633 106.411 32.9633C106.081 32.9633 105.725 33.1023 105.62 33.2721C105.387 33.6482 104.847 33.6812 104.847 33.3193C104.847 32.9695 106.157 32.3553 106.547 32.5221C106.718 32.5946 107.1 32.7397 107.398 32.8447ZM97.1187 33.2721C97.1187 33.4419 96.9879 33.5809 96.8278 33.5809C96.6677 33.5809 96.451 33.4419 96.3458 33.2721C96.2407 33.1023 96.3718 32.9633 96.6367 32.9633C96.9017 32.9633 97.1187 33.1023 97.1187 33.2721ZM98.2134 33.6015C98.546 34.1391 98.1673 34.2531 97.7432 33.7427C97.4992 33.4493 97.4758 33.2721 97.681 33.2721C97.8616 33.2721 98.1015 33.4203 98.2134 33.6015ZM106.702 33.5478C106.702 33.6994 106.493 33.9035 106.238 34.0014C105.767 34.1821 105.605 33.8529 105.981 33.478C106.276 33.1828 106.702 33.2242 106.702 33.5478ZM103.92 34.816C103.92 34.9858 104.067 35.1248 104.247 35.1248C104.427 35.1248 104.489 34.9858 104.384 34.816C104.278 34.6461 104.131 34.5072 104.056 34.5072C103.981 34.5072 103.92 34.6461 103.92 34.816ZM97.9293 37.2254C97.8306 37.3847 97.3332 37.5984 96.8241 37.7003C96.1746 37.83 95.841 38.1143 95.7056 38.6538C95.5993 39.0765 95.3142 39.5866 95.0719 39.7873C94.81 40.0044 94.7108 40.4012 94.8267 40.7664C95.0066 41.3327 94.9173 41.3658 93.6746 41.1919C91.9341 40.9483 90.9999 41.6335 91.0867 43.09C91.1582 44.2899 91.2864 44.4378 92.3066 44.4968C92.7428 44.5218 93.0952 44.612 93.0897 44.6969C93.0621 45.1387 92.1913 45.932 91.7338 45.932C91.4447 45.932 91.2926 46.0682 91.3956 46.2343C91.4985 46.4007 91.4423 46.7994 91.2701 47.1202C91.0982 47.441 91.0571 47.8038 91.1786 47.9264C91.3 48.049 91.3996 48.4495 91.3996 48.816C91.3996 49.185 91.5724 49.4484 91.786 49.4057C91.9987 49.3634 92.1724 49.537 92.1724 49.7917C92.1724 50.0465 92.3981 50.2549 92.6739 50.2549C93.1073 50.2549 93.1178 50.1814 92.7512 49.7145C92.5181 49.4172 92.233 49.1028 92.1183 49.0158C91.6441 48.656 91.6998 46.1034 92.1752 46.397C92.3468 46.5029 92.7295 46.1648 93.0254 45.6454C93.3215 45.1261 93.7002 44.7457 93.8675 44.8003C94.2313 44.9189 94.9547 43.6155 94.9547 42.842C94.9547 41.5165 92.7719 42.0778 92.1755 43.5569C91.923 44.1828 91.8191 44.0679 91.7397 43.0758C91.7226 42.8637 91.5962 42.6071 91.4583 42.5058C90.9207 42.1106 92.6547 41.4007 93.8168 41.5399C95.3374 41.7224 95.7081 42.5518 95.0812 44.3693C94.8354 45.0816 94.7148 45.794 94.8128 45.9524C94.9108 46.1111 94.6385 46.2408 94.2072 46.2408C93.319 46.2408 92.3057 47.4987 92.5926 48.2454C92.8544 48.9271 93.6773 48.8154 94.8236 47.9421C95.3785 47.5194 95.8905 47.2761 95.9613 47.4018C96.0321 47.5274 96.0485 47.4589 95.9977 47.2492C95.8698 46.7222 96.8834 45.01 97.3249 45.0075C97.5231 45.0066 97.7429 44.8334 97.8133 44.6225C97.9042 44.3498 98.103 44.4008 98.5018 44.7991C98.8542 45.1511 99.3148 45.2959 99.7421 45.1888C100.24 45.0637 100.51 45.202 100.751 45.7069C101.447 47.1569 101.455 47.4759 100.801 47.4759C100.456 47.4759 100.26 47.3369 100.365 47.1671C100.47 46.9973 100.417 46.8583 100.247 46.8583C99.5825 46.8583 99.59 47.495 100.257 47.7414C100.922 47.9872 100.899 48.0221 99.8503 48.3679C98.6421 48.7663 97.5725 49.7395 97.8501 50.1882C97.946 50.3426 97.6269 50.8493 97.1416 51.3137C96.6231 51.8096 96.1786 52.0279 96.0639 51.8426C95.931 51.628 95.5714 51.6302 94.9414 51.8497C93.2881 52.4253 92.9122 54.269 94.4483 54.269C95.304 54.269 95.803 55.1265 95.1034 55.3948C94.461 55.6409 93.0353 55.2407 93.26 54.8776C93.362 54.7127 93.3144 54.5778 93.1543 54.5778C92.659 54.5778 92.5017 52.9147 92.9496 52.4157C93.5426 51.7552 94.0669 50.2598 93.8362 49.8871C93.558 49.4376 93.077 50.2901 93.2659 50.8978C93.3493 51.1664 93.1376 51.6398 92.7951 51.9492C90.9139 53.6496 93.6291 57.1882 95.5427 55.5304C96.3029 54.8717 95.8627 53.9602 94.7847 53.9602C94.3435 53.9602 94.0273 53.7808 94.0273 53.5301C94.0273 53.0018 94.7853 52.6794 95.4388 52.9301C95.7405 53.0456 96.34 52.7223 97.0309 52.0711C97.6405 51.4968 98.0616 51.2479 97.9667 51.5181C97.7382 52.1687 98.1494 52.7903 98.8623 52.8724C100.194 53.0256 101.447 53.4412 101.447 53.7305C101.447 53.913 101.893 53.9686 102.529 53.8657C103.5 53.7083 103.611 53.762 103.611 54.395C103.611 54.7825 103.854 55.3121 104.152 55.5714C104.742 56.0862 107.547 56.5043 107.789 56.1136C107.871 55.9806 108.476 55.9438 109.133 56.0318C110.136 56.1661 110.409 56.0757 110.833 55.4705C111.464 54.5713 111.47 54.135 110.861 53.5264C110.481 53.1475 110.455 52.9129 110.732 52.3947C110.925 52.0353 110.999 51.4069 110.896 50.9981C110.707 50.2462 111.127 49.9705 111.512 50.593C111.63 50.7848 111.957 50.4037 112.267 49.7136C112.567 49.0439 113.072 48.3905 113.39 48.2617C113.943 48.0369 113.941 48.0172 113.349 47.7887C112.988 47.6497 112.312 47.7211 111.726 47.9607C110.607 48.417 110.69 48.5551 110.583 46.0685L110.529 44.8155L111.844 45.2879C113.511 45.8863 113.8 45.6013 112.769 44.3776C112.323 43.8477 111.957 43.1193 111.957 42.7587C111.957 42.2615 111.871 42.1896 111.599 42.4613C111.327 42.7327 111.44 43.1206 112.067 44.067C112.522 44.7531 112.787 45.3089 112.657 45.3021C112.528 45.2953 111.656 44.8787 110.721 44.3761C109.786 43.8731 108.847 43.4618 108.634 43.4618C108.422 43.4618 108.248 43.1873 108.248 42.8519C108.248 42.3292 108.358 42.2838 109.019 42.5348C109.443 42.6957 110.138 43.0557 110.564 43.3345C111.037 43.6436 111.339 43.7072 111.339 43.4973C111.339 43.308 111.224 43.153 111.084 43.153C110.944 43.153 110.84 42.6321 110.852 41.9951C110.868 41.1858 111.085 40.6676 111.571 40.2742C112.997 39.1207 111.989 36.9728 110.025 36.9821C109.473 36.9848 108.817 37.1158 108.567 37.2732C108.274 37.4588 107.957 37.4298 107.667 37.1914C107.325 36.9098 107.191 36.9089 107.097 37.1868C107.02 37.4156 106.594 37.4885 105.946 37.3835C104.248 37.1083 102.857 39.0561 104.047 40.042C104.409 40.3422 104.269 40.6028 103.219 41.5807C102.387 42.3557 101.757 42.7059 101.374 42.6061C101.055 42.5225 100.863 42.2727 100.948 42.051C101.034 41.8293 100.868 41.6011 100.58 41.5439C100.221 41.4729 100.17 41.3686 100.417 41.2129C100.616 41.0882 100.989 41.1966 101.248 41.4541C101.505 41.7119 101.796 41.7944 101.892 41.6378C101.99 41.4813 101.907 41.2991 101.708 41.233C101.451 41.1475 101.439 40.9505 101.666 40.5444C101.927 40.0797 101.798 39.8123 100.959 39.0768C100.353 38.5445 100.004 37.9955 100.105 37.7318C100.219 37.4338 100.069 37.2862 99.6502 37.2862C99.3059 37.2862 98.818 37.2072 98.5664 37.1108C98.3148 37.0142 98.0279 37.0657 97.9293 37.2254ZM99.4521 38.37C99.3977 38.8659 99.5028 39.0351 99.7952 38.923C100.077 38.8153 100.156 38.9196 100.035 39.2364C99.8985 39.5903 100.007 39.6709 100.46 39.5526C100.794 39.4652 101.154 39.5323 101.258 39.7018C101.553 40.1785 101.134 40.9712 100.679 40.7967C100.095 40.5725 99.7804 41.2463 100.221 41.7771C100.635 42.2742 100.296 42.3693 99.6249 41.9447C99.3553 41.7743 99.2626 41.4007 99.3776 40.9458C99.5433 40.29 99.5216 40.2721 99.1559 40.76C98.6403 41.4479 98.1206 41.4522 97.9892 40.7698C97.9005 40.3104 97.7939 40.3391 97.1935 40.9823C96.6275 41.5893 96.5004 41.6295 96.5004 41.2012C96.5004 40.9128 96.7756 40.4413 97.1122 40.1535C97.5246 39.8009 97.6105 39.5604 97.3762 39.4158C96.9681 39.1639 97.2566 38.2125 97.7407 38.2125C97.9237 38.2125 98.0508 38.3864 98.0229 38.5985C97.9271 39.3359 98.048 39.7564 98.3553 39.7564C98.8483 39.7564 98.7126 38.2116 98.2025 38.0162C97.489 37.7426 97.9385 37.3514 98.7809 37.5122C99.3491 37.6206 99.5118 37.8284 99.4521 38.37ZM111.339 37.9038C112.137 38.7004 112.128 39.6434 111.319 40.0757C110.844 40.3298 110.566 40.3215 110.23 40.0424C109.835 39.715 109.84 39.599 110.272 39.1225C110.728 38.6189 110.716 38.5615 110.11 38.3694C109.707 38.2416 109.151 38.3592 108.669 38.6748C107.553 39.4053 107.307 38.9218 108.342 38.0319C109.397 37.1247 110.512 37.0772 111.339 37.9038ZM106.745 38.186C107.147 38.5111 107.377 38.8749 107.258 38.9947C107.138 39.1145 106.808 38.9805 106.525 38.697C106.241 38.4135 105.794 38.2233 105.531 38.2743C104.869 38.4027 104.679 39.1389 105.308 39.1389C105.629 39.1389 105.781 39.3402 105.716 39.6792C105.575 40.4095 104.863 40.3619 104.348 39.5878C103.99 39.0487 103.998 38.8557 104.405 38.2755C104.992 37.4384 105.785 37.4082 106.745 38.186ZM107.629 37.9038C107.629 38.0736 107.49 38.2125 107.32 38.2125C107.15 38.2125 107.011 38.0736 107.011 37.9038C107.011 37.7339 107.15 37.595 107.32 37.595C107.49 37.595 107.629 37.7339 107.629 37.9038ZM96.6531 38.5232C96.3446 38.8641 96.025 39.0756 95.943 38.9937C95.7353 38.7862 96.5063 37.9038 96.8952 37.9038C97.0708 37.9038 96.962 38.1826 96.6531 38.5232ZM106.251 38.8508C106.584 39.3884 106.205 39.5023 105.781 38.9919C105.537 38.6986 105.513 38.5213 105.719 38.5213C105.899 38.5213 106.139 38.6695 106.251 38.8508ZM109.796 38.9811C109.586 39.234 109.289 39.3634 109.135 39.2686C108.741 39.0249 109.118 38.5213 109.695 38.5213C110.088 38.5213 110.107 38.6072 109.796 38.9811ZM96.8 39.3705C96.7836 39.7552 95.2373 40.7593 95.011 40.5321C94.8951 40.416 95.1284 40.055 95.53 39.7299C96.2853 39.1182 96.8167 38.9678 96.8 39.3705ZM109.597 40.0877C110.192 40.5546 110.412 41.011 110.412 41.7761C110.412 42.5814 110.304 42.7837 109.948 42.6472C109.693 42.5493 109.484 42.2143 109.484 41.9024C109.484 41.3105 108.399 40.374 107.713 40.374C107.495 40.374 107.014 40.7214 106.644 41.1459C106.044 41.8354 105.156 42.1948 105.156 41.748C105.156 41.3244 106.111 39.7963 106.464 39.6542C107.377 39.2874 108.835 39.489 109.597 40.0877ZM96.1319 41.7635C96.1094 42.3579 95.9906 42.8442 95.8682 42.8442C95.5514 42.8442 95.2741 41.6326 95.4725 41.1163C95.7857 40.3014 96.1724 40.6815 96.1319 41.7635ZM108.702 46.196C109.192 46.2896 109.241 46.2284 108.951 45.8801C108.491 45.3265 108.813 44.8318 109.793 44.587C110.219 44.4807 110.387 44.4755 110.167 44.5752C109.868 44.7111 109.855 44.8621 110.114 45.1739C110.351 45.4586 110.363 45.7649 110.153 46.1395C109.951 46.5001 109.95 46.8824 110.15 47.256C110.674 48.2336 109.262 49.2912 108.682 48.3553C108.562 48.1598 108.727 47.8013 109.051 47.5593C109.609 47.1409 109.6 47.1236 108.866 47.2199C108.105 47.32 108.092 47.3684 108.005 50.5235C107.936 53.0166 108.023 53.8883 108.398 54.4604C108.932 55.2738 110.103 55.4603 110.103 54.7322C110.103 54.4774 109.894 54.269 109.639 54.269C109.384 54.269 109.175 54.051 109.175 53.7842C109.175 52.978 110.548 53.3686 110.667 54.2088C110.891 55.7854 109.061 56.3956 108.031 55.0876L107.459 54.3623L106.912 55.0876C106.611 55.4865 106.069 55.8129 105.707 55.8129C104.817 55.8129 103.92 54.9459 103.92 54.085C103.92 53.2235 103.419 52.8613 102.863 53.3214C102.456 53.6589 101.447 53.4745 101.447 53.0626C101.447 52.6183 102.215 52.1076 102.882 52.1076C103.263 52.1076 103.783 52.4037 104.037 52.7656C104.296 53.1355 104.694 53.3489 104.944 53.2531C105.189 53.159 105.535 53.2272 105.713 53.4044C106.141 53.8324 105.832 54.5778 105.226 54.5778C104.961 54.5778 104.841 54.6744 104.959 54.7927C105.416 55.2485 106.106 55.1135 106.549 54.4821C106.923 53.9485 107.011 52.6041 107.011 47.433C107.011 42.5963 107.105 41.0113 107.398 40.9131C107.68 40.8183 107.826 41.5004 107.939 43.4315C108.074 45.7551 108.168 46.0944 108.702 46.196ZM98.8879 42.0621C99.5847 42.2365 99.649 42.3245 99.2447 42.5506C98.9531 42.7136 98.3237 42.7077 97.7033 42.5364C96.7728 42.2791 96.719 42.2949 97.2241 42.6772C97.6102 42.9693 97.7277 43.3136 97.5895 43.748C97.4776 44.1 97.2912 44.3986 97.1753 44.4119C97.059 44.4248 96.7208 44.482 96.4231 44.5388C95.649 44.6867 95.7427 43.9079 96.6946 42.2856C97.3357 41.1929 97.5629 41.0008 97.7725 41.375C97.9188 41.6357 98.4205 41.9447 98.8879 42.0621ZM104.845 41.7045C104.844 41.9068 104.357 42.403 103.763 42.8068C103.169 43.2107 102.683 43.6625 102.683 43.8104C102.683 43.9583 102.544 44.0793 102.374 44.0793C101.756 44.0793 102.09 43.308 103.197 42.1754C104.278 41.0697 104.85 40.9063 104.845 41.7045ZM109.12 41.7107C109.19 42.0689 109.073 42.168 108.734 42.0383C108.162 41.8191 108.066 40.8795 108.634 41.0687C108.847 41.1391 109.065 41.4282 109.12 41.7107ZM94.5099 43.4022C94.3046 44.0484 93.409 44.5916 93.409 44.0697C93.409 43.9052 93.5481 43.7705 93.7181 43.7705C93.8882 43.7705 94.0273 43.3954 94.0273 42.9368C94.0273 42.3307 94.12 42.1958 94.367 42.4425C94.5541 42.6293 94.6184 43.061 94.5099 43.4022ZM106.702 42.8442C106.702 43.241 106.496 43.4618 106.126 43.4618C105.547 43.4618 103.92 44.859 103.92 45.3564C103.92 45.5031 103.706 45.6232 103.445 45.6232C103.049 45.6232 103.032 45.508 103.341 44.9285C103.669 44.3146 103.656 44.2797 103.231 44.6299C102.966 44.8479 102.582 45.4318 102.376 45.9277C102.049 46.7172 102.088 46.9494 102.693 47.7986C103.213 48.5282 103.447 48.6659 103.64 48.355C103.979 47.8069 104.823 48.8793 104.837 49.876C104.847 50.5525 104.82 50.56 104.08 50.0758C103.658 49.7994 103.016 49.0942 102.654 48.5084C102.291 47.9227 101.926 47.5123 101.841 47.5963C101.616 47.8211 102.881 49.5015 103.89 50.3188C104.384 50.719 104.846 51.4634 104.952 52.0304C105.18 53.2426 105.102 53.2602 104.071 52.2305C103.523 51.6836 103.059 51.4814 102.617 51.5968C101.663 51.846 100.512 50.8669 100.948 50.1768C101.203 49.7732 101.16 49.5274 100.765 49.1325C100.281 48.6499 100.298 48.5764 101.02 48.0088C101.457 47.6661 101.72 47.21 101.625 46.9621C101.43 46.4548 102.58 44.5351 103.651 43.5813C105.267 42.1414 106.702 41.795 106.702 42.8442ZM93.7181 42.9242C93.7181 43.1382 93.4399 43.4868 93.0999 43.6989C92.4046 44.1327 92.3357 44.0021 92.8015 43.1326C93.162 42.4598 93.7181 42.3335 93.7181 42.9242ZM99.5918 43.9249C99.5918 44.5193 99.4527 45.0057 99.2827 45.0057C98.9398 45.0057 98.8539 43.3753 99.1797 43.0502C99.5356 42.6948 99.5918 42.8143 99.5918 43.9249ZM100.775 43.9052C100.846 44.5113 100.755 44.7241 100.466 44.6277C100.24 44.5527 100.049 44.1185 100.041 43.6628C100.022 42.5833 100.644 42.7883 100.775 43.9052ZM101.842 43.978C102.02 44.9075 101.833 45.6232 101.414 45.6232C101.262 45.6232 101.138 45.4148 101.138 45.16C101.138 44.9053 101.304 44.6969 101.508 44.6969C101.797 44.6969 101.797 44.6144 101.508 44.3263C101.084 43.9021 100.997 42.7213 101.41 42.9757C101.56 43.0684 101.754 43.5192 101.842 43.978ZM98.6644 43.4618C98.6644 43.6316 98.5253 43.7705 98.3553 43.7705C98.1852 43.7705 98.0461 43.6316 98.0461 43.4618C98.0461 43.2919 98.1852 43.153 98.3553 43.153C98.5253 43.153 98.6644 43.2919 98.6644 43.4618ZM106.393 47.7461C106.393 49.9325 106.473 52.1906 106.571 52.7637L106.75 53.8058L105.953 52.9394C105.183 52.1023 105.156 51.9396 105.156 48.1021C105.156 44.2297 105.235 43.8922 106.161 43.7949C106.289 43.7817 106.393 45.5596 106.393 47.7461ZM109.175 44.0793C109.175 44.2492 109.044 44.3881 108.884 44.3881C108.724 44.3881 108.507 44.2492 108.402 44.0793C108.297 43.9095 108.428 43.7705 108.693 43.7705C108.958 43.7705 109.175 43.9095 109.175 44.0793ZM96.5004 45.3589C96.5004 45.4713 95.8994 46.2266 95.1646 47.0371C94.1713 48.133 93.6869 48.4563 93.2745 48.2982C92.7722 48.1058 92.7635 48.0212 93.1815 47.395C93.443 47.0031 93.9605 46.7039 94.376 46.7039C94.9992 46.7039 95.1235 46.5313 95.2048 45.5547C95.292 44.5023 95.3507 44.4369 95.9004 44.7799C96.2302 44.9859 96.5004 45.2462 96.5004 45.3589ZM97.7874 45.2832C97.2974 45.5859 97.7419 46.8071 98.6013 47.5203C99.1813 48.0014 99.211 47.9912 99.1708 47.3283C99.1473 46.9432 98.9723 46.6882 98.7816 46.7611C98.3089 46.9423 97.937 45.8814 98.3778 45.6093C98.5717 45.4895 98.6044 45.3138 98.4508 45.219C98.2971 45.1242 97.9985 45.1529 97.7874 45.2832ZM104.601 45.8934C104.423 46.0027 104.233 46.296 104.176 46.5452C104.12 46.7941 103.894 47.1918 103.672 47.429C103.33 47.7958 103.205 47.7739 102.833 47.282C102.255 46.5193 102.41 46.1102 103.326 45.9795C103.737 45.9206 104.203 45.6464 104.36 45.3697C104.581 44.9825 104.678 44.9621 104.784 45.2808C104.861 45.5084 104.778 45.7841 104.601 45.8934ZM96.8813 47.4759C96.8813 48.0703 96.945 48.3136 97.0226 48.0162C97.1005 47.7189 97.1005 47.2329 97.0226 46.9355C96.945 46.6382 96.8813 46.8815 96.8813 47.4759ZM104.847 47.5376C104.847 48.2559 104.754 48.4331 104.507 48.1864C104.32 47.9996 104.26 47.5549 104.374 47.1983C104.669 46.2692 104.847 46.397 104.847 47.5376ZM97.4278 47.4759C97.4278 47.6457 97.5753 47.7847 97.7552 47.7847C97.9351 47.7847 97.9967 47.6457 97.8915 47.4759C97.7864 47.3061 97.6393 47.1671 97.5642 47.1671C97.489 47.1671 97.4278 47.3061 97.4278 47.4759ZM112.204 49.0377C111.82 49.557 111.455 49.8291 111.392 49.6423C111.31 49.3971 111.166 49.3962 110.873 49.6395C110.579 49.8831 110.408 49.881 110.254 49.6318C110.004 49.2276 109.99 49.243 111.185 48.6097C112.649 47.8334 112.99 47.9767 112.204 49.0377ZM95.8821 48.711C95.8821 48.8808 96.0212 49.0198 96.1913 49.0198C96.3613 49.0198 96.5004 48.8808 96.5004 48.711C96.5004 48.5412 96.3613 48.4022 96.1913 48.4022C96.0212 48.4022 95.8821 48.5412 95.8821 48.711ZM96.9641 49.3286C97.0692 49.4984 97.2164 49.6373 97.2915 49.6373C97.3666 49.6373 97.4278 49.4984 97.4278 49.3286C97.4278 49.1587 97.2804 49.0198 97.1005 49.0198C96.9205 49.0198 96.859 49.1587 96.9641 49.3286ZM100.415 49.5036C100.518 49.7698 100.444 50.145 100.251 50.3373C99.7464 50.8416 99.8169 51.0874 100.519 51.2708C101.185 51.4446 101.303 51.9853 100.836 52.7226C100.604 53.0895 100.467 53.1049 100.161 52.7998C99.9501 52.5889 99.4413 52.4163 99.0301 52.4163C98.4257 52.4163 98.3194 52.2984 98.4737 51.7988C98.5788 51.4591 98.75 50.9033 98.8551 50.5637C98.9748 50.1758 98.9031 49.9461 98.6625 49.9461C98.3587 49.9461 98.3593 49.8504 98.6644 49.4829C99.1677 48.8774 100.18 48.8895 100.415 49.5036ZM109.81 49.6543C110.676 50.5186 110.563 52.8162 109.647 52.99C109.311 53.0537 108.863 53.3328 108.652 53.6104C108.305 54.0658 108.267 54.0668 108.258 53.6221C108.252 53.3513 108.526 52.878 108.866 52.5707C109.585 51.9207 109.702 50.5637 109.039 50.5637C108.466 50.5637 108.145 50.0412 108.365 49.4681C108.604 48.8481 109.063 48.9074 109.81 49.6543ZM96.3458 49.9461C96.451 50.1159 96.5981 50.2549 96.6732 50.2549C96.7483 50.2549 96.8096 50.1159 96.8096 49.9461C96.8096 49.7763 96.6621 49.6373 96.4822 49.6373C96.3023 49.6373 96.2407 49.7763 96.3458 49.9461ZM95.573 50.2549C95.573 50.4247 95.7205 50.5637 95.9004 50.5637C96.0803 50.5637 96.1418 50.4247 96.0367 50.2549C95.9316 50.0851 95.7844 49.9461 95.7093 49.9461C95.6342 49.9461 95.573 50.0851 95.573 50.2549ZM109.175 51.1559C109.175 51.6904 108.8 52.4163 108.524 52.4163C108.204 52.4163 108.149 51.3826 108.454 51.0784C108.752 50.7801 109.175 50.8258 109.175 51.1559ZM109.33 54.5778C109.435 54.7476 109.382 54.8866 109.212 54.8866C109.042 54.8866 108.817 54.7476 108.711 54.5778C108.606 54.408 108.66 54.269 108.83 54.269C109 54.269 109.225 54.408 109.33 54.5778ZM93.3762 63.3008C92.9725 64.3624 92.5944 65.3347 92.5363 65.4622C92.4779 65.5897 94.3197 65.6938 96.6293 65.6938C98.9386 65.6938 100.828 65.7994 100.828 65.9282C100.828 66.0569 99.4944 68.8708 97.8637 72.1809C96.2333 75.491 94.4771 79.1025 93.9608 80.2064C93.4446 81.3103 92.4816 83.2905 91.821 84.6065L90.6199 86.9995H98.3185H106.017L106.452 85.224L106.887 83.4486L109.19 83.4124L111.494 83.3766L111.987 81.5598L112.481 79.7432L114.461 79.8528C115.549 79.9131 116.494 80.0131 116.559 80.0752C116.625 80.1369 116.844 80.9215 117.046 81.8182L117.413 83.4486L119.94 83.5381C121.331 83.5875 122.468 83.544 122.468 83.4415C122.468 83.238 120.845 77.0908 119.372 71.715C118.86 69.8469 118.299 67.6931 118.126 66.9289C117.953 66.1647 117.711 65.3822 117.589 65.1902C117.467 64.9981 116.094 64.7415 114.539 64.6196L111.71 64.3979L111.175 66.2039C110.88 67.1969 110.535 68.4265 110.408 68.936C110.281 69.4455 109.483 72.3634 108.634 75.4203C107.786 78.4772 107.001 81.3606 106.891 81.8275L106.69 82.6766H102.806C100.67 82.6766 98.9732 82.5726 99.0357 82.445C99.0981 82.3175 99.6493 81.1713 100.261 79.8976C100.873 78.6239 103.128 73.9965 105.274 69.6144C107.42 65.2322 109.175 61.5846 109.175 61.5089C109.175 61.433 105.785 61.3709 101.643 61.3709H94.1101L93.3762 63.3008ZM156.323 64.5109C155.409 65.2291 155.318 66.3178 156.112 67.0354C156.872 67.7225 157.886 67.6799 158.638 66.9289C159.374 66.1931 159.41 65.7426 158.802 64.8746C158.144 63.9369 157.225 63.8019 156.323 64.5109ZM53.3753 64.8882C47.7369 66.659 44.4618 73.3308 46.2824 79.3372C46.9761 81.6261 48.936 83.9191 51.1612 85.0452C53.3898 86.1732 56.4599 86.1794 58.8029 85.0607C59.7284 84.6188 60.6942 84.0754 60.9492 83.8527C61.9737 82.9598 63.7312 80.7986 63.7275 80.437C63.7238 80.0863 59.7485 77.2208 59.6153 77.4731C59.5837 77.533 59.2799 78.1332 58.9398 78.8073C58.2405 80.1934 56.5934 81.4415 55.4629 81.4415C54.1324 81.4415 52.7326 80.543 51.9576 79.1917C51.3393 78.1138 51.2113 77.4666 51.2113 75.4203C51.2113 73.3611 51.3377 72.7293 51.9724 71.6227C53.9101 68.2425 57.2847 68.2885 59.2703 71.7221C59.5735 72.2464 59.7649 72.1578 61.5888 70.6485C62.6823 69.7437 63.6171 68.9026 63.666 68.7797C63.7151 68.6568 62.9769 67.846 62.0257 66.9774C59.483 64.6563 56.4478 63.9233 53.3753 64.8882ZM85.0483 64.5745C84.971 64.6511 84.9772 67.0883 85.0622 69.9905C85.1472 72.8927 85.1367 75.2669 85.0387 75.2666C84.9407 75.2662 83.7196 72.9038 82.3248 70.0167L79.7892 64.7675L77.866 64.7718C76.8081 64.774 75.6297 64.8598 75.247 64.962L74.5514 65.1482V74.5659V83.9837L75.247 83.7975C75.6297 83.6953 76.7636 83.6094 77.7668 83.6073L79.5913 83.6029L79.4164 78.1993C79.3202 75.2273 79.3341 72.7976 79.447 72.7997C79.5598 72.8019 80.8554 75.1986 82.3257 78.1261L84.9991 83.4486L86.5207 83.4804C87.3576 83.498 88.4869 83.447 89.03 83.3677L90.0174 83.2228L89.9355 73.9178L89.8539 64.6131L87.5214 64.5242C86.2385 64.4751 85.1256 64.4976 85.0483 64.5745ZM158.461 64.9438C159.065 65.5468 159.065 65.6966 158.466 66.5513C157.813 67.4816 156.56 67.4566 156.126 66.5047C155.415 64.9456 157.241 63.725 158.461 64.9438ZM156.758 64.8221C156.46 66.0054 156.82 67.1624 157.197 66.2342C157.316 65.9433 157.439 65.9621 157.698 66.3114C157.974 66.6822 158.025 66.5902 157.954 65.851C157.897 65.2615 157.669 64.8901 157.324 64.8246C157.026 64.7684 156.771 64.7672 156.758 64.8221ZM66.6971 65.3041L65.489 65.4283L65.6924 72.4039C65.804 76.2407 65.8955 80.4688 65.8955 81.8003V84.2205L67.2093 84.2171C67.9321 84.2153 69.045 84.1276 69.6825 84.0223L70.8417 83.8308V74.4535V65.0762L69.3733 65.1281C68.5655 65.1568 67.3614 65.2359 66.6971 65.3041ZM124.323 74.1852C124.323 79.1951 124.288 83.3982 124.246 83.5258C124.203 83.6533 125.243 83.7978 126.557 83.8475L128.946 83.9374L129.03 78.4439L129.115 72.9501L129.778 74.3396C135.1 85.4948 134.34 84.5172 137.693 84.525L139.471 84.5293V75.1115V65.6938L138.621 65.691C138.153 65.6898 137.019 65.5984 136.102 65.4882L134.433 65.2881L134.655 70.8174C134.786 74.0629 134.764 76.2191 134.602 76.0379C134.451 75.868 133.234 73.3324 131.899 70.4027L129.472 65.0762H126.898H124.323V74.1852ZM157.71 65.385C157.71 65.5549 157.571 65.6938 157.401 65.6938C157.231 65.6938 157.092 65.5549 157.092 65.385C157.092 65.2152 157.231 65.0762 157.401 65.0762C157.571 65.0762 157.71 65.2152 157.71 65.385ZM147.045 66.3654C144.227 67.4341 142.369 69.5545 141.43 72.7735C140.12 77.2637 142.427 82.7044 146.606 84.9761C150.04 86.843 154.538 85.9061 156.886 82.835C160.63 77.9378 158.772 69.8114 153.272 67.0274C151.476 66.1187 148.523 65.8047 147.045 66.3654ZM151.8 71.0628C152.937 72.0704 153.677 73.9768 153.685 75.9221C153.695 78.514 153.401 79.5252 152.298 80.6936C151.503 81.5351 151.062 81.7503 150.129 81.7503C149.17 81.7503 148.751 81.5323 147.81 80.5439C146.568 79.2405 146.201 78.0338 146.23 75.3617C146.277 71.1854 149.302 68.8504 151.8 71.0628ZM115.315 73.7992L115.909 76.501H114.531C113.362 76.501 113.177 76.4189 113.316 75.9607C113.444 75.5349 114.344 71.3275 114.455 70.6343C114.505 70.3175 114.738 71.1715 115.315 73.7992Z" fill="#989AA9"/>
</svg>
