<svg width="206" height="130" viewBox="0 0 206 130" fill="none" xmlns="http://www.w3.org/2000/svg">
<path fill-rule="evenodd" clip-rule="evenodd" d="M101.774 31.0998C101.54 31.244 101.169 31.2934 100.949 31.2091C100.729 31.1248 100.369 31.1687 100.148 31.3067C99.9274 31.4447 99.6078 31.5692 99.4377 31.5834C99.2677 31.5976 98.8853 31.7053 98.5876 31.823C97.4395 32.2772 96.9566 32.4476 96.7482 32.4736C96.6292 32.4881 96.3701 32.6616 96.1723 32.8592C95.7033 33.3277 96.0653 33.8896 96.836 33.8896C97.4917 33.8896 98.1434 35.1315 97.8661 35.8529C97.6348 36.4553 99.9809 36.9892 102.589 36.928C103.746 36.9008 104.206 36.8301 103.611 36.7705C103.016 36.7113 102.042 36.5692 101.447 36.4553L100.365 36.2478L101.911 36.0341C103.705 35.7862 105.232 35.9884 104.954 36.4374C104.848 36.6087 104.931 36.6924 105.137 36.6239C105.874 36.3784 105.468 35.8927 104.318 35.6413C103.056 35.3659 99.8084 35.5299 98.846 35.9177C98.4204 36.0891 98.3193 36.0511 98.4862 35.7812C98.6139 35.5753 98.5607 35.2171 98.3684 34.9855C97.6896 34.1685 102.132 33.5972 104.64 34.1787C105.946 34.4816 106.441 34.828 105.864 35.0346C105.57 35.1396 105.57 35.2992 105.861 35.7642C106.065 36.0918 106.356 36.3599 106.506 36.3599C106.656 36.3599 106.628 36.1789 106.444 35.9578C105.903 35.3069 106.38 34.2636 107.376 33.9168C108.611 33.4864 108.426 32.6178 107.009 32.2006C106.415 32.0255 105.756 31.7702 105.543 31.6328C105.331 31.4954 105.012 31.4725 104.834 31.5821C104.657 31.6918 104.315 31.6186 104.075 31.4194C103.835 31.2202 103.487 31.1508 103.302 31.265C103.117 31.3793 102.793 31.3296 102.583 31.1548C102.361 30.9708 102.02 30.9476 101.774 31.0998ZM101.089 31.8029C101.395 32.108 101.53 32.0941 101.752 31.7347C101.906 31.4861 102.14 31.3907 102.272 31.5222C102.403 31.6541 102.324 31.8776 102.094 32.0194C101.865 32.1608 101.767 32.4217 101.876 32.5986C101.986 32.7759 101.933 33.0087 101.759 33.1161C101.584 33.2236 101.323 32.9902 101.177 32.5971C101.032 32.204 100.793 31.9277 100.646 31.9829C100.5 32.0382 100.331 31.9338 100.27 31.7513C100.119 31.3005 100.617 31.3317 101.089 31.8029ZM103.967 31.8826C103.967 32.0438 103.817 32.2256 103.634 32.2865C103.452 32.3473 103.302 32.1657 103.302 31.8826C103.302 31.5994 103.452 31.4179 103.634 31.4787C103.817 31.5395 103.967 31.7214 103.967 31.8826ZM99.5923 32.1914C99.5923 32.4461 99.4362 32.6545 99.2455 32.6545C99.0198 32.6545 99.0467 32.8342 99.3227 33.168C99.6863 33.608 99.6807 33.6593 99.2832 33.5274C98.8516 33.3839 98.63 32.4893 98.8946 31.9598C99.0998 31.5497 99.5923 31.7134 99.5923 32.1914ZM105.466 32.3896C105.466 32.5637 105.295 32.649 105.086 32.5795C104.876 32.5097 104.464 32.7413 104.169 33.0939C103.727 33.6216 103.63 33.646 103.621 33.2326C103.616 32.9562 103.924 32.5199 104.307 32.2633C105.021 31.7841 105.466 31.8326 105.466 32.3896ZM103.101 32.8188C103.005 33.068 102.802 33.2721 102.651 33.2721C102.333 33.2721 102.278 32.5455 102.572 32.2513C102.902 31.9218 103.287 32.3349 103.101 32.8188ZM98.3557 32.6545C98.3557 32.8244 98.1471 32.9633 97.892 32.9633C97.637 32.9633 97.4283 32.8244 97.4283 32.6545C97.4283 32.4847 97.637 32.3457 97.892 32.3457C98.1471 32.3457 98.3557 32.4847 98.3557 32.6545ZM100.757 33.0244C100.603 33.4873 100.067 33.3545 99.9562 32.8262C99.8875 32.4961 100.012 32.4072 100.356 32.5394C100.63 32.6446 100.811 32.8629 100.757 33.0244ZM107.398 32.8447C108.06 33.0779 108.113 33.5809 107.475 33.5809C107.22 33.5809 107.012 33.4419 107.012 33.2721C107.012 33.1023 106.742 32.9633 106.412 32.9633C106.081 32.9633 105.726 33.1023 105.621 33.2721C105.388 33.6482 104.848 33.6812 104.848 33.3193C104.848 32.9695 106.158 32.3553 106.548 32.5221C106.718 32.5946 107.101 32.7397 107.398 32.8447ZM97.1192 33.2721C97.1192 33.4419 96.9884 33.5809 96.8283 33.5809C96.6682 33.5809 96.4514 33.4419 96.3463 33.2721C96.2412 33.1023 96.3723 32.9633 96.6372 32.9633C96.9022 32.9633 97.1192 33.1023 97.1192 33.2721ZM98.2139 33.6015C98.5465 34.1391 98.1678 34.2531 97.7436 33.7427C97.4997 33.4493 97.4762 33.2721 97.6815 33.2721C97.862 33.2721 98.1019 33.4203 98.2139 33.6015ZM106.703 33.5478C106.703 33.6994 106.494 33.9035 106.239 34.0014C105.768 34.1821 105.606 33.8529 105.981 33.478C106.277 33.1828 106.703 33.2242 106.703 33.5478ZM103.92 34.816C103.92 34.9858 104.068 35.1248 104.248 35.1248C104.428 35.1248 104.489 34.9858 104.384 34.816C104.279 34.6461 104.132 34.5072 104.057 34.5072C103.981 34.5072 103.92 34.6461 103.92 34.816ZM97.9297 37.2254C97.8311 37.3847 97.3337 37.5984 96.8246 37.7003C96.1751 37.83 95.8415 38.1143 95.7061 38.6538C95.5998 39.0765 95.3147 39.5866 95.0724 39.7873C94.8105 40.0044 94.7113 40.4012 94.8272 40.7664C95.0071 41.3327 94.9178 41.3658 93.675 41.1919C91.9346 40.9483 91.0004 41.6335 91.0872 43.09C91.1586 44.2899 91.2869 44.4378 92.3071 44.4968C92.7433 44.5218 93.0957 44.612 93.0902 44.6969C93.0626 45.1387 92.1918 45.932 91.7343 45.932C91.4452 45.932 91.2931 46.0682 91.3961 46.2343C91.499 46.4007 91.4427 46.7994 91.2705 47.1202C91.0987 47.441 91.0576 47.8038 91.179 47.9264C91.3005 48.049 91.4001 48.4495 91.4001 48.816C91.4001 49.185 91.5729 49.4484 91.7865 49.4057C91.9992 49.3634 92.1729 49.537 92.1729 49.7917C92.1729 50.0465 92.3986 50.2549 92.6744 50.2549C93.1078 50.2549 93.1183 50.1814 92.7516 49.7145C92.5186 49.4172 92.2335 49.1028 92.1188 49.0158C91.6446 48.656 91.7003 46.1034 92.1757 46.397C92.3473 46.5029 92.73 46.1648 93.0259 45.6454C93.322 45.1261 93.7007 44.7457 93.868 44.8003C94.2318 44.9189 94.9552 43.6155 94.9552 42.842C94.9552 41.5165 92.7724 42.0778 92.176 43.5569C91.9235 44.1828 91.8196 44.0679 91.7401 43.0758C91.7231 42.8637 91.5967 42.6071 91.4588 42.5058C90.9212 42.1106 92.6552 41.4007 93.8173 41.5399C95.3379 41.7224 95.7086 42.5518 95.0816 44.3693C94.8359 45.0816 94.7153 45.794 94.8133 45.9524C94.9113 46.1111 94.639 46.2408 94.2077 46.2408C93.3195 46.2408 92.3062 47.4987 92.5931 48.2454C92.8549 48.9271 93.6778 48.8154 94.8241 47.9421C95.379 47.5194 95.891 47.2761 95.9618 47.4018C96.0326 47.5274 96.0489 47.4589 95.9982 47.2492C95.8703 46.7222 96.8839 45.01 97.3254 45.0075C97.5235 45.0066 97.7433 44.8334 97.8138 44.6225C97.9047 44.3498 98.1035 44.4008 98.5023 44.7991C98.8547 45.1511 99.3153 45.2959 99.7425 45.1888C100.241 45.0637 100.51 45.202 100.752 45.7069C101.447 47.1569 101.456 47.4759 100.801 47.4759C100.456 47.4759 100.26 47.3369 100.365 47.1671C100.47 46.9973 100.417 46.8583 100.247 46.8583C99.583 46.8583 99.5905 47.495 100.257 47.7414C100.923 47.9872 100.9 48.0221 99.8508 48.3679C98.6426 48.7663 97.573 49.7395 97.8506 50.1882C97.9464 50.3426 97.6274 50.8493 97.1421 51.3137C96.6236 51.8096 96.1791 52.0279 96.0644 51.8426C95.9315 51.628 95.5719 51.6302 94.9419 51.8497C93.2886 52.4253 92.9127 54.269 94.4488 54.269C95.3045 54.269 95.8035 55.1265 95.1039 55.3948C94.4615 55.6409 93.0357 55.2407 93.2605 54.8776C93.3625 54.7127 93.3149 54.5778 93.1548 54.5778C92.6595 54.5778 92.5022 52.9147 92.9501 52.4157C93.543 51.7552 94.0673 50.2598 93.8367 49.8871C93.5585 49.4376 93.0775 50.2901 93.2664 50.8978C93.3498 51.1664 93.1381 51.6398 92.7955 51.9492C90.9144 53.6496 93.6296 57.1882 95.5432 55.5304C96.3034 54.8717 95.8631 53.9602 94.7852 53.9602C94.344 53.9602 94.0278 53.7808 94.0278 53.5301C94.0278 53.0018 94.7858 52.6794 95.4393 52.9301C95.741 53.0456 96.3405 52.7223 97.0314 52.0711C97.641 51.4968 98.0621 51.2479 97.9672 51.5181C97.7387 52.1687 98.1499 52.7903 98.8627 52.8724C100.195 53.0256 101.447 53.4412 101.447 53.7305C101.447 53.913 101.893 53.9686 102.529 53.8657C103.501 53.7083 103.611 53.762 103.611 54.395C103.611 54.7825 103.854 55.3121 104.152 55.5714C104.742 56.0862 107.548 56.5043 107.789 56.1136C107.872 55.9806 108.477 55.9438 109.134 56.0318C110.136 56.1661 110.409 56.0757 110.834 55.4705C111.465 54.5713 111.471 54.135 110.861 53.5264C110.482 53.1475 110.455 52.9129 110.733 52.3947C110.925 52.0353 110.999 51.4069 110.896 50.9981C110.707 50.2462 111.127 49.9705 111.512 50.593C111.631 50.7848 111.958 50.4037 112.267 49.7136C112.568 49.0439 113.073 48.3905 113.39 48.2617C113.943 48.0369 113.942 48.0172 113.349 47.7887C112.988 47.6497 112.313 47.7211 111.726 47.9607C110.608 48.417 110.691 48.5551 110.583 46.0685L110.529 44.8155L111.845 45.2879C113.511 45.8863 113.8 45.6013 112.769 44.3776C112.323 43.8477 111.958 43.1193 111.958 42.7587C111.958 42.2615 111.871 42.1896 111.599 42.4613C111.328 42.7327 111.441 43.1206 112.068 44.067C112.522 44.7531 112.788 45.3089 112.658 45.3021C112.528 45.2953 111.657 44.8787 110.721 44.3761C109.786 43.8731 108.847 43.4618 108.635 43.4618C108.422 43.4618 108.248 43.1873 108.248 42.8519C108.248 42.3292 108.359 42.2838 109.019 42.5348C109.443 42.6957 110.139 43.0557 110.565 43.3345C111.037 43.6436 111.34 43.7072 111.34 43.4973C111.34 43.308 111.225 43.153 111.085 43.153C110.944 43.153 110.84 42.6321 110.853 41.9951C110.869 41.1858 111.085 40.6676 111.572 40.2742C112.997 39.1207 111.989 36.9728 110.026 36.9821C109.473 36.9848 108.817 37.1158 108.568 37.2732C108.274 37.4588 107.957 37.4298 107.667 37.1914C107.326 36.9098 107.191 36.9089 107.098 37.1868C107.02 37.4156 106.594 37.4885 105.946 37.3835C104.249 37.1083 102.858 39.0561 104.047 40.042C104.409 40.3422 104.269 40.6028 103.219 41.5807C102.388 42.3557 101.758 42.7059 101.375 42.6061C101.055 42.5225 100.863 42.2727 100.949 42.051C101.034 41.8293 100.868 41.6011 100.58 41.5439C100.221 41.4729 100.17 41.3686 100.417 41.2129C100.616 41.0882 100.99 41.1966 101.248 41.4541C101.506 41.7119 101.796 41.7944 101.893 41.6378C101.99 41.4813 101.907 41.2991 101.709 41.233C101.451 41.1475 101.439 40.9505 101.667 40.5444C101.927 40.0797 101.799 39.8123 100.96 39.0768C100.353 38.5445 100.004 37.9955 100.105 37.7318C100.22 37.4338 100.069 37.2862 99.6507 37.2862C99.3064 37.2862 98.8185 37.2072 98.5669 37.1108C98.3152 37.0142 98.0284 37.0657 97.9297 37.2254ZM99.4526 38.37C99.3982 38.8659 99.5033 39.0351 99.7957 38.923C100.077 38.8153 100.157 38.9196 100.035 39.2364C99.899 39.5903 100.007 39.6709 100.46 39.5526C100.795 39.4652 101.154 39.5323 101.259 39.7018C101.554 40.1785 101.135 40.9712 100.68 40.7967C100.096 40.5725 99.7809 41.2463 100.222 41.7771C100.635 42.2742 100.297 42.3693 99.6254 41.9447C99.3558 41.7743 99.2631 41.4007 99.3781 40.9458C99.5438 40.29 99.5221 40.2721 99.1564 40.76C98.6408 41.4479 98.1211 41.4522 97.9897 40.7698C97.901 40.3104 97.7943 40.3391 97.194 40.9823C96.628 41.5893 96.5009 41.6295 96.5009 41.2012C96.5009 40.9128 96.776 40.4413 97.1127 40.1535C97.5251 39.8009 97.611 39.5604 97.3767 39.4158C96.9686 39.1639 97.2571 38.2125 97.7412 38.2125C97.9242 38.2125 98.0512 38.3864 98.0234 38.5985C97.9276 39.3359 98.0485 39.7564 98.3557 39.7564C98.8488 39.7564 98.7131 38.2116 98.203 38.0162C97.4895 37.7426 97.939 37.3514 98.7814 37.5122C99.3496 37.6206 99.5122 37.8284 99.4526 38.37ZM111.34 37.9038C112.137 38.7004 112.129 39.6434 111.32 40.0757C110.844 40.3298 110.567 40.3215 110.23 40.0424C109.835 39.715 109.841 39.599 110.273 39.1225C110.729 38.6189 110.716 38.5615 110.111 38.3694C109.708 38.2416 109.152 38.3592 108.67 38.6748C107.554 39.4053 107.308 38.9218 108.343 38.0319C109.398 37.1247 110.512 37.0772 111.34 37.9038ZM106.746 38.186C107.147 38.5111 107.378 38.8749 107.258 38.9947C107.139 39.1145 106.809 38.9805 106.525 38.697C106.241 38.4135 105.794 38.2233 105.531 38.2743C104.869 38.4027 104.679 39.1389 105.308 39.1389C105.63 39.1389 105.782 39.3402 105.716 39.6792C105.575 40.4095 104.863 40.3619 104.348 39.5878C103.99 39.0487 103.999 38.8557 104.406 38.2755C104.992 37.4384 105.785 37.4082 106.746 38.186ZM107.63 37.9038C107.63 38.0736 107.491 38.2125 107.321 38.2125C107.151 38.2125 107.012 38.0736 107.012 37.9038C107.012 37.7339 107.151 37.595 107.321 37.595C107.491 37.595 107.63 37.7339 107.63 37.9038ZM96.6536 38.5232C96.3451 38.8641 96.0254 39.0756 95.9435 38.9937C95.7358 38.7862 96.5068 37.9038 96.8957 37.9038C97.0713 37.9038 96.9625 38.1826 96.6536 38.5232ZM106.252 38.8508C106.584 39.3884 106.205 39.5023 105.781 38.9919C105.537 38.6986 105.514 38.5213 105.719 38.5213C105.9 38.5213 106.14 38.6695 106.252 38.8508ZM109.797 38.9811C109.587 39.234 109.289 39.3634 109.135 39.2686C108.741 39.0249 109.118 38.5213 109.695 38.5213C110.089 38.5213 110.107 38.6072 109.797 38.9811ZM96.8005 39.3705C96.7841 39.7552 95.2378 40.7593 95.0115 40.5321C94.8955 40.416 95.1289 40.055 95.5305 39.7299C96.2857 39.1182 96.8172 38.9678 96.8005 39.3705ZM109.598 40.0877C110.192 40.5546 110.412 41.011 110.412 41.7761C110.412 42.5814 110.305 42.7837 109.949 42.6472C109.693 42.5493 109.485 42.2143 109.485 41.9024C109.485 41.3105 108.399 40.374 107.714 40.374C107.495 40.374 107.014 40.7214 106.645 41.1459C106.045 41.8354 105.157 42.1948 105.157 41.748C105.157 41.3244 106.111 39.7963 106.464 39.6542C107.377 39.2874 108.836 39.489 109.598 40.0877ZM96.1324 41.7635C96.1098 42.3579 95.9911 42.8442 95.8687 42.8442C95.5518 42.8442 95.2745 41.6326 95.473 41.1163C95.7862 40.3014 96.1729 40.6815 96.1324 41.7635ZM108.702 46.196C109.193 46.2896 109.241 46.2284 108.952 45.8801C108.492 45.3265 108.814 44.8318 109.794 44.587C110.219 44.4807 110.387 44.4755 110.167 44.5752C109.869 44.7111 109.855 44.8621 110.115 45.1739C110.351 45.4586 110.364 45.7649 110.154 46.1395C109.952 46.5001 109.951 46.8824 110.151 47.256C110.674 48.2336 109.262 49.2912 108.683 48.3553C108.562 48.1598 108.728 47.8013 109.051 47.5593C109.609 47.1409 109.6 47.1236 108.867 47.2199C108.105 47.32 108.092 47.3684 108.005 50.5235C107.936 53.0166 108.024 53.8883 108.399 54.4604C108.932 55.2738 110.103 55.4603 110.103 54.7322C110.103 54.4774 109.894 54.269 109.639 54.269C109.384 54.269 109.176 54.051 109.176 53.7842C109.176 52.978 110.549 53.3686 110.668 54.2088C110.892 55.7854 109.061 56.3956 108.031 55.0876L107.46 54.3623L106.912 55.0876C106.611 55.4865 106.069 55.8129 105.708 55.8129C104.817 55.8129 103.92 54.9459 103.92 54.085C103.92 53.2235 103.419 52.8613 102.864 53.3214C102.457 53.6589 101.447 53.4745 101.447 53.0626C101.447 52.6183 102.215 52.1076 102.882 52.1076C103.264 52.1076 103.784 52.4037 104.038 52.7656C104.297 53.1355 104.694 53.3489 104.945 53.2531C105.19 53.159 105.536 53.2272 105.713 53.4044C106.142 53.8324 105.833 54.5778 105.227 54.5778C104.962 54.5778 104.842 54.6744 104.96 54.7927C105.416 55.2485 106.107 55.1135 106.55 54.4821C106.924 53.9485 107.012 52.6041 107.012 47.433C107.012 42.5963 107.106 41.0113 107.398 40.9131C107.68 40.8183 107.826 41.5004 107.939 43.4315C108.075 45.7551 108.168 46.0944 108.702 46.196ZM98.8884 42.0621C99.5852 42.2365 99.6495 42.3245 99.2451 42.5506C98.9536 42.7136 98.3242 42.7077 97.7038 42.5364C96.7733 42.2791 96.7195 42.2949 97.2246 42.6772C97.6107 42.9693 97.7282 43.3136 97.59 43.748C97.4781 44.1 97.2917 44.3986 97.1758 44.4119C97.0595 44.4248 96.7213 44.482 96.4236 44.5388C95.6495 44.6867 95.7432 43.9079 96.695 42.2856C97.3362 41.1929 97.5634 41.0008 97.773 41.375C97.9192 41.6357 98.421 41.9447 98.8884 42.0621ZM104.846 41.7045C104.844 41.9068 104.357 42.403 103.764 42.8068C103.17 43.2107 102.684 43.6625 102.684 43.8104C102.684 43.9583 102.545 44.0793 102.375 44.0793C101.757 44.0793 102.09 43.308 103.198 42.1754C104.279 41.0697 104.85 40.9063 104.846 41.7045ZM109.121 41.7107C109.191 42.0689 109.073 42.168 108.735 42.0383C108.163 41.8191 108.066 40.8795 108.635 41.0687C108.847 41.1391 109.066 41.4282 109.121 41.7107ZM94.5103 43.4022C94.3051 44.0484 93.4095 44.5916 93.4095 44.0697C93.4095 43.9052 93.5486 43.7705 93.7186 43.7705C93.8887 43.7705 94.0278 43.3954 94.0278 42.9368C94.0278 42.3307 94.1205 42.1958 94.3675 42.4425C94.5546 42.6293 94.6189 43.061 94.5103 43.4022ZM106.703 42.8442C106.703 43.241 106.496 43.4618 106.126 43.4618C105.547 43.4618 103.92 44.859 103.92 45.3564C103.92 45.5031 103.707 45.6232 103.446 45.6232C103.05 45.6232 103.032 45.508 103.342 44.9285C103.669 44.3146 103.656 44.2797 103.231 44.6299C102.967 44.8479 102.582 45.4318 102.376 45.9277C102.049 46.7172 102.088 46.9494 102.694 47.7986C103.214 48.5282 103.448 48.6659 103.64 48.355C103.98 47.8069 104.824 48.8793 104.838 49.876C104.847 50.5525 104.82 50.56 104.08 50.0758C103.658 49.7994 103.016 49.0942 102.654 48.5084C102.291 47.9227 101.926 47.5123 101.842 47.5963C101.617 47.8211 102.881 49.5015 103.89 50.3188C104.384 50.719 104.846 51.4634 104.953 52.0304C105.181 53.2426 105.102 53.2602 104.071 52.2305C103.524 51.6836 103.06 51.4814 102.617 51.5968C101.663 51.846 100.513 50.8669 100.949 50.1768C101.204 49.7732 101.161 49.5274 100.765 49.1325C100.282 48.6499 100.298 48.5764 101.021 48.0088C101.457 47.6661 101.72 47.21 101.625 46.9621C101.43 46.4548 102.58 44.5351 103.651 43.5813C105.268 42.1414 106.703 41.795 106.703 42.8442ZM93.7186 42.9242C93.7186 43.1382 93.4404 43.4868 93.1004 43.6989C92.4051 44.1327 92.3362 44.0021 92.802 43.1326C93.1625 42.4598 93.7186 42.3335 93.7186 42.9242ZM99.5923 43.9249C99.5923 44.5193 99.4532 45.0057 99.2832 45.0057C98.9403 45.0057 98.8544 43.3753 99.1802 43.0502C99.536 42.6948 99.5923 42.8143 99.5923 43.9249ZM100.775 43.9052C100.847 44.5113 100.756 44.7241 100.466 44.6277C100.241 44.5527 100.05 44.1185 100.041 43.6628C100.023 42.5833 100.644 42.7883 100.775 43.9052ZM101.842 43.978C102.02 44.9075 101.834 45.6232 101.414 45.6232C101.262 45.6232 101.138 45.4148 101.138 45.16C101.138 44.9053 101.305 44.6969 101.509 44.6969C101.797 44.6969 101.797 44.6144 101.509 44.3263C101.084 43.9021 100.998 42.7213 101.41 42.9757C101.56 43.0684 101.754 43.5192 101.842 43.978ZM98.6649 43.4618C98.6649 43.6316 98.5258 43.7705 98.3557 43.7705C98.1857 43.7705 98.0466 43.6316 98.0466 43.4618C98.0466 43.2919 98.1857 43.153 98.3557 43.153C98.5258 43.153 98.6649 43.2919 98.6649 43.4618ZM106.393 47.7461C106.393 49.9325 106.474 52.1906 106.572 52.7637L106.75 53.8058L105.954 52.9394C105.184 52.1023 105.157 51.9396 105.157 48.1021C105.157 44.2297 105.236 43.8922 106.162 43.7949C106.289 43.7817 106.393 45.5596 106.393 47.7461ZM109.176 44.0793C109.176 44.2492 109.045 44.3881 108.885 44.3881C108.725 44.3881 108.508 44.2492 108.403 44.0793C108.298 43.9095 108.429 43.7705 108.694 43.7705C108.959 43.7705 109.176 43.9095 109.176 44.0793ZM96.5009 45.3589C96.5009 45.4713 95.8999 46.2266 95.1651 47.0371C94.1718 48.133 93.6874 48.4563 93.275 48.2982C92.7727 48.1058 92.764 48.0212 93.182 47.395C93.4435 47.0031 93.961 46.7039 94.3765 46.7039C94.9997 46.7039 95.124 46.5313 95.2053 45.5547C95.2925 44.5023 95.3512 44.4369 95.9009 44.7799C96.2307 44.9859 96.5009 45.2462 96.5009 45.3589ZM97.7879 45.2832C97.2979 45.5859 97.7424 46.8071 98.6018 47.5203C99.1818 48.0014 99.2115 47.9912 99.1713 47.3283C99.1478 46.9432 98.9728 46.6882 98.7821 46.7611C98.3094 46.9423 97.9375 45.8814 98.3783 45.6093C98.5721 45.4895 98.6049 45.3138 98.4513 45.219C98.2976 45.1242 97.999 45.1529 97.7879 45.2832ZM104.601 45.8934C104.424 46.0027 104.233 46.296 104.177 46.5452C104.121 46.7941 103.894 47.1918 103.673 47.429C103.331 47.7958 103.206 47.7739 102.833 47.282C102.256 46.5193 102.41 46.1102 103.326 45.9795C103.738 45.9206 104.203 45.6464 104.361 45.3697C104.581 44.9825 104.679 44.9621 104.785 45.2808C104.861 45.5084 104.778 45.7841 104.601 45.8934ZM96.8818 47.4759C96.8818 48.0703 96.9454 48.3136 97.023 48.0162C97.1009 47.7189 97.1009 47.2329 97.023 46.9355C96.9454 46.6382 96.8818 46.8815 96.8818 47.4759ZM104.848 47.5376C104.848 48.2559 104.755 48.4331 104.508 48.1864C104.321 47.9996 104.261 47.5549 104.374 47.1983C104.669 46.2692 104.848 46.397 104.848 47.5376ZM97.4283 47.4759C97.4283 47.6457 97.5758 47.7847 97.7557 47.7847C97.9356 47.7847 97.9971 47.6457 97.892 47.4759C97.7869 47.3061 97.6398 47.1671 97.5647 47.1671C97.4895 47.1671 97.4283 47.3061 97.4283 47.4759ZM112.205 49.0377C111.821 49.557 111.455 49.8291 111.393 49.6423C111.311 49.3971 111.167 49.3962 110.873 49.6395C110.579 49.8831 110.408 49.881 110.254 49.6318C110.004 49.2276 109.99 49.243 111.185 48.6097C112.649 47.8334 112.99 47.9767 112.205 49.0377ZM95.8826 48.711C95.8826 48.8808 96.0217 49.0198 96.1918 49.0198C96.3618 49.0198 96.5009 48.8808 96.5009 48.711C96.5009 48.5412 96.3618 48.4022 96.1918 48.4022C96.0217 48.4022 95.8826 48.5412 95.8826 48.711ZM96.9646 49.3286C97.0697 49.4984 97.2169 49.6373 97.292 49.6373C97.3671 49.6373 97.4283 49.4984 97.4283 49.3286C97.4283 49.1587 97.2809 49.0198 97.1009 49.0198C96.921 49.0198 96.8595 49.1587 96.9646 49.3286ZM100.416 49.5036C100.518 49.7698 100.444 50.145 100.252 50.3373C99.7469 50.8416 99.8174 51.0874 100.52 51.2708C101.185 51.4446 101.304 51.9853 100.837 52.7226C100.605 53.0895 100.467 53.1049 100.162 52.7998C99.9506 52.5889 99.4418 52.4163 99.0306 52.4163C98.4262 52.4163 98.3199 52.2984 98.4741 51.7988C98.5793 51.4591 98.7505 50.9033 98.8556 50.5637C98.9753 50.1758 98.9035 49.9461 98.663 49.9461C98.3591 49.9461 98.3598 49.8504 98.6649 49.4829C99.1682 48.8774 100.18 48.8895 100.416 49.5036ZM109.811 49.6543C110.676 50.5186 110.564 52.8162 109.647 52.99C109.311 53.0537 108.863 53.3328 108.652 53.6104C108.305 54.0658 108.267 54.0668 108.258 53.6221C108.253 53.3513 108.526 52.878 108.867 52.5707C109.586 51.9207 109.702 50.5637 109.039 50.5637C108.467 50.5637 108.146 50.0412 108.366 49.4681C108.604 48.8481 109.063 48.9074 109.811 49.6543ZM96.3463 49.9461C96.4514 50.1159 96.5986 50.2549 96.6737 50.2549C96.7488 50.2549 96.81 50.1159 96.81 49.9461C96.81 49.7763 96.6626 49.6373 96.4827 49.6373C96.3027 49.6373 96.2412 49.7763 96.3463 49.9461ZM95.5735 50.2549C95.5735 50.4247 95.7209 50.5637 95.9009 50.5637C96.0808 50.5637 96.1423 50.4247 96.0372 50.2549C95.9321 50.0851 95.7849 49.9461 95.7098 49.9461C95.6347 49.9461 95.5735 50.0851 95.5735 50.2549ZM109.176 51.1559C109.176 51.6904 108.8 52.4163 108.524 52.4163C108.204 52.4163 108.15 51.3825 108.454 51.0784C108.753 50.7801 109.176 50.8258 109.176 51.1559ZM109.33 54.5778C109.435 54.7476 109.382 54.8866 109.212 54.8866C109.042 54.8866 108.817 54.7476 108.712 54.5778C108.607 54.408 108.66 54.269 108.83 54.269C109 54.269 109.225 54.408 109.33 54.5778ZM93.3767 63.3008C92.973 64.3624 92.5949 65.3347 92.5368 65.4622C92.4784 65.5897 94.3202 65.6938 96.6298 65.6938C98.9391 65.6938 100.829 65.7994 100.829 65.9282C100.829 66.0569 99.4949 68.8708 97.8642 72.1809C96.2338 75.491 94.4776 79.1025 93.9613 80.2064C93.445 81.3103 92.4821 83.2905 91.8214 84.6065L90.6204 86.9995H98.319H106.017L106.452 85.224L106.887 83.4486L109.191 83.4124L111.494 83.3766L111.988 81.5598L112.482 79.7432L114.461 79.8528C115.55 79.9131 116.494 80.0131 116.56 80.0752C116.626 80.1369 116.845 80.9215 117.046 81.8182L117.413 83.4486L119.941 83.5381C121.331 83.5875 122.469 83.544 122.469 83.4415C122.469 83.238 120.845 77.0908 119.372 71.715C118.86 69.8469 118.299 67.6931 118.126 66.9289C117.953 66.1647 117.712 65.3822 117.59 65.1902C117.468 64.9981 116.095 64.7415 114.539 64.6196L111.71 64.3979L111.175 66.2039C110.881 67.1969 110.536 68.4265 110.409 68.936C110.282 69.4455 109.484 72.3634 108.635 75.4203C107.786 78.4772 107.001 81.3606 106.891 81.8275L106.691 82.6766H102.807C100.67 82.6766 98.9737 82.5726 99.0362 82.445C99.0986 82.3175 99.6498 81.1713 100.261 79.8976C100.873 78.6239 103.129 73.9965 105.275 69.6144C107.42 65.2322 109.176 61.5846 109.176 61.5089C109.176 61.433 105.786 61.3709 101.643 61.3709H94.1106L93.3767 63.3008ZM156.323 64.5109C155.409 65.2291 155.318 66.3178 156.112 67.0354C156.872 67.7225 157.886 67.6799 158.638 66.9289C159.375 66.1931 159.411 65.7426 158.802 64.8746C158.144 63.9369 157.226 63.8019 156.323 64.5109ZM53.3758 64.8882C47.7373 66.659 44.4623 73.3308 46.2828 79.3372C46.9766 81.6261 48.9365 83.9191 51.1617 85.0452C53.3903 86.1732 56.4604 86.1794 58.8033 85.0607C59.7289 84.6188 60.6947 84.0754 60.9497 83.8527C61.9742 82.9598 63.7317 80.7986 63.728 80.437C63.7243 80.0863 59.749 77.2208 59.6158 77.4731C59.5842 77.533 59.2804 78.1332 58.9403 78.8073C58.241 80.1934 56.5939 81.4415 55.4634 81.4415C54.1328 81.4415 52.7331 80.543 51.958 79.1917C51.3398 78.1138 51.2118 77.4666 51.2118 75.4203C51.2118 73.3611 51.3382 72.7293 51.9729 71.6227C53.9106 68.2425 57.2852 68.2885 59.2708 71.7221C59.574 72.2464 59.7654 72.1578 61.5893 70.6485C62.6828 69.7437 63.6176 68.9026 63.6664 68.7797C63.7156 68.6568 62.9774 67.846 62.0261 66.9774C59.4835 64.6563 56.4483 63.9233 53.3758 64.8882ZM85.0488 64.5745C84.9715 64.6511 84.9777 67.0883 85.0627 69.9905C85.1477 72.8927 85.1372 75.2669 85.0392 75.2666C84.9412 75.2662 83.7201 72.9038 82.3253 70.0167L79.7897 64.7675L77.8665 64.7718C76.8086 64.774 75.6302 64.8598 75.2475 64.962L74.5519 65.1482V74.5659V83.9837L75.2475 83.7975C75.6302 83.6953 76.7641 83.6094 77.7673 83.6073L79.5918 83.6029L79.4169 78.1993C79.3207 75.2273 79.3346 72.7976 79.4475 72.7997C79.5603 72.8019 80.8559 75.1986 82.3262 78.1261L84.9996 83.4486L86.5212 83.4804C87.3581 83.498 88.4874 83.447 89.0305 83.3677L90.0179 83.2228L89.936 73.9178L89.8544 64.6131L87.5219 64.5242C86.239 64.4751 85.1261 64.4976 85.0488 64.5745ZM158.462 64.9438C159.065 65.5468 159.065 65.6966 158.466 66.5513C157.814 67.4816 156.561 67.4566 156.127 66.5047C155.415 64.9456 157.241 63.725 158.462 64.9438ZM156.758 64.8221C156.461 66.0054 156.821 67.1624 157.198 66.2342C157.316 65.9433 157.439 65.9621 157.699 66.3114C157.974 66.6822 158.025 66.5902 157.954 65.851C157.897 65.2615 157.67 64.8901 157.324 64.8246C157.027 64.7684 156.772 64.7672 156.758 64.8221ZM66.6976 65.3041L65.4894 65.4283L65.6929 72.4039C65.8045 76.2407 65.896 80.4688 65.896 81.8003V84.2205L67.2098 84.2171C67.9326 84.2153 69.0455 84.1276 69.6829 84.0223L70.8422 83.8308V74.4535V65.0762L69.3738 65.1281C68.566 65.1568 67.3619 65.2359 66.6976 65.3041ZM124.324 74.1852C124.324 79.1951 124.289 83.3982 124.246 83.5258C124.204 83.6533 125.244 83.7978 126.558 83.8475L128.946 83.9374L129.031 78.4439L129.115 72.9501L129.778 74.3396C135.1 85.4948 134.341 84.5172 137.694 84.525L139.471 84.5293V75.1115V65.6938L138.621 65.691C138.154 65.6898 137.02 65.5984 136.102 65.4882L134.433 65.2881L134.656 70.8174C134.787 74.0629 134.765 76.2191 134.603 76.0379C134.451 75.8681 133.235 73.3324 131.9 70.4027L129.472 65.0762H126.898H124.324V74.1852ZM157.711 65.385C157.711 65.5549 157.572 65.6938 157.402 65.6938C157.232 65.6938 157.092 65.5549 157.092 65.385C157.092 65.2152 157.232 65.0762 157.402 65.0762C157.572 65.0762 157.711 65.2152 157.711 65.385ZM147.045 66.3654C144.228 67.4341 142.37 69.5545 141.43 72.7735C140.12 77.2637 142.427 82.7044 146.606 84.9761C150.041 86.843 154.539 85.9061 156.887 82.835C160.631 77.9378 158.772 69.8114 153.272 67.0274C151.477 66.1187 148.524 65.8047 147.045 66.3654ZM151.801 71.0628C152.938 72.0704 153.677 73.9768 153.685 75.9221C153.695 78.514 153.401 79.5252 152.298 80.6936C151.504 81.5351 151.062 81.7503 150.13 81.7503C149.171 81.7503 148.751 81.5323 147.81 80.5439C146.569 79.2405 146.201 78.0338 146.231 75.3617C146.278 71.1854 149.302 68.8504 151.801 71.0628ZM115.316 73.7992L115.91 76.501H114.531C113.362 76.501 113.177 76.4189 113.316 75.9607C113.445 75.5349 114.345 71.3275 114.455 70.6343C114.506 70.3175 114.738 71.1715 115.316 73.7992Z" fill="#989AA9"/>
</svg>
