<svg width="206" height="130" viewBox="0 0 206 130" fill="none" xmlns="http://www.w3.org/2000/svg">
<path fill-rule="evenodd" clip-rule="evenodd" d="M114.951 50.5599C107.125 51.238 100.589 55.9994 98.8714 62.2725C97.924 65.7336 98.4589 69.4692 100.345 72.5653C100.651 73.0676 100.968 73.5562 101.049 73.6512C101.18 73.8048 101.563 73.5429 104.473 71.3131C106.276 69.9321 108.233 68.4346 108.822 67.9854L109.893 67.1689L109.406 66.3888C107.978 64.1048 107.729 61.6975 108.67 59.2724C109.236 57.8134 110.154 56.6395 111.643 55.4691C115.606 52.3548 121.688 52.138 125.999 54.9573C126.697 55.4134 127.629 56.2073 128.005 56.6645C128.06 56.7324 129.987 55.2436 129.987 55.1327C129.987 54.9597 128.219 53.7285 127.023 53.0682C124.59 51.7254 122.106 50.9524 119.219 50.6397C117.968 50.5041 116.016 50.4676 114.951 50.5599ZM85.6057 50.7029C80.906 50.9415 75.72 51.6264 72.2377 52.4682L71.115 52.7396L71.0835 57.2065L71.0518 61.6735L72.1142 60.963C74.369 59.4549 76.9947 58.2102 79.9768 57.2359C80.9158 56.929 81.7479 56.678 81.826 56.678C81.9335 56.678 81.9679 59.5639 81.9679 68.6025V80.527H85.6663H89.3648V67.852V55.1769L89.6376 55.0818C90.3013 54.8504 94.8418 54.4078 99.3607 54.1342C100.757 54.0497 101.922 53.9615 101.951 53.9382C101.979 53.9149 101.963 53.2492 101.915 52.4587L101.827 51.0216L99.9918 50.9019C95.1836 50.5885 89.4287 50.5089 85.6057 50.7029ZM64.5669 50.8548C64.3668 50.8738 63.6028 50.9386 62.8692 50.999C53.085 51.8045 45.3135 55.4874 40.4629 61.6174C36.8456 66.1889 34.7935 72.0542 34.589 78.4066L34.5206 80.527H39.5533H44.586L44.6698 78.6061C44.803 75.5582 45.1052 72.9629 45.6051 70.5733L45.7356 69.9496H53.1808H60.6259V75.2383V80.527H64.385H68.1441V65.6588V50.7906L66.5374 50.8055C65.6536 50.8137 64.767 50.836 64.5669 50.8548ZM138.506 65.584L138.536 80.3774L139.749 80.5024C140.416 80.5711 142.817 80.6547 145.084 80.6881C149.513 80.7534 151.713 80.6476 154.784 80.2219C161.768 79.254 166.631 76.9443 168.988 73.4769C169.456 72.7875 170.194 71.1809 170.264 70.6996L170.307 70.4018L168.765 70.2306C167.331 70.0715 163.505 69.7443 161.387 69.5996L160.47 69.537L159.66 70.866C158.69 72.4563 157.653 73.6694 156.283 74.8166C153.582 77.0788 150.641 78.2259 146.873 78.4876L145.873 78.557V64.9732C145.873 57.502 145.855 51.3893 145.833 51.3893C145.811 51.3893 145.209 51.3218 144.496 51.2393C142.957 51.0617 139.602 50.7906 138.941 50.7906H138.475L138.506 65.584ZM60.6259 60.0707V66.8562H53.6534C47.8536 66.8562 46.6808 66.8334 46.6808 66.7204C46.6808 66.6458 46.8764 66.0985 47.1156 65.5043C49.5933 59.3464 53.7522 55.3512 59.5345 53.5744C60.0347 53.4207 60.4849 53.2927 60.5349 53.2901C60.585 53.2874 60.6259 56.3387 60.6259 60.0707ZM128.642 60.4804C126.481 62.132 124.539 63.6248 124.326 63.7978L123.94 64.1121L124.532 65.0984C126.105 67.7186 126.083 70.7022 124.469 73.3424C123.727 74.5576 122.256 75.9287 120.83 76.7365C118.795 77.8884 115.801 78.4967 113.44 78.2381C110.679 77.9358 108.259 76.9062 106.497 75.2849C106.111 74.9301 105.74 74.6397 105.671 74.6397C105.603 74.6396 105.143 74.9747 104.648 75.3843L103.749 76.129L103.984 76.3438C104.114 76.4618 104.629 76.8392 105.129 77.1823C107.729 78.9661 110.651 80.0834 113.92 80.5442C115.951 80.8304 119.247 80.7628 121.137 80.3963C126.119 79.4298 130.379 76.8293 132.937 73.1927C135.579 69.4367 136.138 64.8588 134.467 60.6521C134.099 59.725 132.979 57.7558 132.719 57.5781C132.611 57.5044 131.514 58.2854 128.642 60.4804Z" fill="#989AA9"/>
</svg>
