<svg width="206" height="130" viewBox="0 0 206 130" fill="none" xmlns="http://www.w3.org/2000/svg">
<path fill-rule="evenodd" clip-rule="evenodd" d="M114.951 50.56C107.125 51.238 100.588 55.9995 98.8712 62.2726C97.9238 65.7337 98.4587 69.4692 100.345 72.5654C100.651 73.0676 100.968 73.5563 101.049 73.6513C101.179 73.8048 101.563 73.5429 104.473 71.3131C106.276 69.9321 108.233 68.4346 108.822 67.9855L109.893 67.1689L109.406 66.3889C107.978 64.1048 107.729 61.6975 108.67 59.2725C109.236 57.8134 110.154 56.6395 111.643 55.4691C115.605 52.3548 121.688 52.138 125.999 54.9573C126.697 55.4134 127.629 56.2073 128.004 56.6645C128.06 56.7324 129.987 55.2437 129.987 55.1327C129.987 54.9598 128.219 53.7285 127.023 53.0682C124.59 51.7254 122.106 50.9524 119.219 50.6397C117.968 50.5041 116.016 50.4677 114.951 50.56ZM85.6055 50.703C80.9057 50.9416 75.7197 51.6264 72.2375 52.4682L71.1147 52.7396L71.0832 57.2066L71.0516 61.6735L72.1139 60.9631C74.3688 59.455 76.9945 58.2102 79.9765 57.2359C80.9156 56.9291 81.7477 56.678 81.8257 56.678C81.9333 56.678 81.9676 59.5639 81.9676 68.6025V80.5271H85.6661H89.3646V67.852V55.1769L89.6374 55.0818C90.3011 54.8504 94.8416 54.4079 99.3605 54.1342C100.756 54.0497 101.922 53.9615 101.95 53.9383C101.979 53.9149 101.962 53.2492 101.914 52.4587L101.827 51.0216L99.9915 50.9019C95.1834 50.5885 89.4285 50.5089 85.6055 50.703ZM64.5666 50.8548C64.3665 50.8738 63.6026 50.9387 62.869 50.999C53.0848 51.8045 45.3132 55.4874 40.4627 61.6175C36.8453 66.1889 34.7932 72.0543 34.5888 78.4066L34.5204 80.5271H39.5531H44.5858L44.6696 78.6062C44.8027 75.5583 45.1049 72.9629 45.6049 70.5733L45.7354 69.9497H53.1806H60.6256V75.2384V80.5271H64.3847H68.1438V65.6588V50.7906L66.5371 50.8055C65.6534 50.8137 64.7667 50.836 64.5666 50.8548ZM138.505 65.584L138.536 80.3774L139.749 80.5024C140.416 80.5712 142.817 80.6547 145.084 80.6881C149.512 80.7534 151.713 80.6476 154.784 80.2219C161.767 79.254 166.631 76.9443 168.987 73.4769C169.456 72.7875 170.194 71.1809 170.264 70.6997L170.306 70.4018L168.765 70.2307C167.331 70.0715 163.505 69.7443 161.387 69.5996L160.47 69.537L159.66 70.866C158.69 72.4563 157.653 73.6694 156.283 74.8167C153.582 77.0788 150.641 78.2259 146.873 78.4876L145.872 78.5571V64.9732C145.872 57.502 145.854 51.3893 145.833 51.3893C145.811 51.3893 145.209 51.3218 144.495 51.2393C142.957 51.0617 139.602 50.7906 138.941 50.7906H138.475L138.505 65.584ZM60.6256 60.0708V66.8563H53.6531C47.8533 66.8563 46.6806 66.8334 46.6806 66.7205C46.6806 66.6458 46.8762 66.0985 47.1153 65.5044C49.593 59.3464 53.7519 55.3512 59.5343 53.5744C60.0345 53.4208 60.4846 53.2927 60.5347 53.2901C60.5848 53.2874 60.6256 56.3387 60.6256 60.0708ZM128.641 60.4804C126.48 62.1321 124.538 63.6249 124.326 63.7978L123.94 64.1121L124.532 65.0984C126.105 67.7186 126.082 70.7022 124.469 73.3424C123.727 74.5576 122.256 75.9287 120.829 76.7366C118.795 77.8884 115.801 78.4967 113.44 78.2382C110.679 77.9358 108.258 76.9062 106.497 75.285C106.111 74.9301 105.74 74.6397 105.671 74.6397C105.603 74.6396 105.142 74.9747 104.648 75.3844L103.749 76.1291L103.984 76.3438C104.113 76.4618 104.628 76.8392 105.129 77.1823C107.729 78.9661 110.651 80.0834 113.92 80.5442C115.951 80.8304 119.247 80.7629 121.137 80.3963C126.119 79.4298 130.379 76.8294 132.937 73.1927C135.579 69.4368 136.137 64.8588 134.467 60.6521C134.099 59.725 132.979 57.7558 132.718 57.5781C132.611 57.5044 131.513 58.2855 128.641 60.4804Z" fill="#989AA9"/>
</svg>
