<svg width="115" height="56" viewBox="0 0 115 56" fill="none" xmlns="http://www.w3.org/2000/svg">
<path fill-rule="evenodd" clip-rule="evenodd" d="M56.7737 0.0998253C56.5397 0.244025 56.1687 0.293431 55.9489 0.209134C55.7291 0.124838 55.3686 0.168682 55.1479 0.306706C54.9272 0.44473 54.6075 0.569171 54.4375 0.583375C54.2675 0.597579 53.8851 0.705343 53.5874 0.822987C52.4392 1.2772 51.9563 1.44764 51.748 1.47358C51.629 1.48809 51.3699 1.66163 51.172 1.85924C50.7031 2.32766 51.0651 2.88964 51.8358 2.88964C52.4915 2.88964 53.1431 4.13155 52.8658 4.85285C52.6346 5.45528 54.9807 5.98915 57.5886 5.92802C58.746 5.90084 59.206 5.83013 58.6109 5.77054C58.0158 5.71126 57.042 5.56922 56.4469 5.45528L55.3649 5.24778L56.9106 5.03411C58.7046 4.78616 60.2317 4.98841 59.9541 5.43737C59.8481 5.60874 59.9303 5.69242 60.1368 5.62387C60.8735 5.37839 60.4679 4.89268 59.3173 4.64134C58.0554 4.36591 54.8082 4.52987 53.8458 4.91769C53.4201 5.08906 53.319 5.05109 53.486 4.78122C53.6136 4.57526 53.5605 4.21708 53.3682 3.98549C52.6893 3.16846 57.1314 2.59723 59.64 3.17866C60.9458 3.48157 61.4411 3.82801 60.8633 4.03459C60.5702 4.13957 60.5696 4.29921 60.8605 4.76423C61.0652 5.09185 61.3554 5.35987 61.5054 5.35987C61.6553 5.35987 61.6278 5.17892 61.4439 4.95784C60.9032 4.30693 61.3793 3.26357 62.3756 2.91681C63.6113 2.48637 63.4258 1.61778 62.009 1.20062C61.4151 1.02554 60.7557 0.770182 60.543 0.632776C60.3307 0.49537 60.0113 0.47252 59.8339 0.582136C59.6564 0.691752 59.3148 0.618574 59.0746 0.419412C58.8344 0.22025 58.4866 0.150775 58.3018 0.265023C58.1169 0.379271 57.7932 0.329559 57.5824 0.154791C57.3604 -0.0292412 57.0201 -0.0524024 56.7737 0.0998253ZM56.0889 0.802916C56.3944 1.10799 56.5295 1.09409 56.752 0.734673C56.9057 0.486107 57.1394 0.390693 57.2714 0.522233C57.4031 0.654081 57.3233 0.877637 57.0939 1.01937C56.8646 1.16079 56.7666 1.42171 56.876 1.59864C56.9857 1.77588 56.9326 2.00869 56.7585 2.11615C56.5842 2.2236 56.3226 1.99017 56.177 1.59709C56.0314 1.20402 55.7928 0.92766 55.6462 0.982931C55.5 1.0382 55.3306 0.933836 55.2697 0.751348C55.1192 0.300531 55.6172 0.33172 56.0889 0.802916ZM58.9664 0.882579C58.9664 1.04376 58.8168 1.22563 58.6341 1.28646C58.4514 1.34729 58.3018 1.16573 58.3018 0.882579C58.3018 0.59943 58.4514 0.417868 58.6341 0.478698C58.8168 0.539527 58.9664 0.721397 58.9664 0.882579ZM54.5921 1.19136C54.5921 1.4461 54.436 1.65453 54.2452 1.65453C54.0195 1.65453 54.0464 1.83423 54.3225 2.16802C54.686 2.60803 54.6805 2.65929 54.2829 2.52744C53.8514 2.38386 53.6297 1.48933 53.8943 0.959774C54.0996 0.549716 54.5921 0.713369 54.5921 1.19136ZM60.4657 1.38959C60.4657 1.56374 60.2945 1.64897 60.0855 1.57949C59.8762 1.50971 59.4635 1.74129 59.1683 2.09392C58.7265 2.62162 58.6298 2.64601 58.6211 2.23256C58.6155 1.9562 58.9237 1.5199 59.3065 1.2633C60.0212 0.78408 60.4657 0.832557 60.4657 1.38959ZM58.1005 1.81879C58.005 2.06798 57.8022 2.27208 57.6504 2.27208C57.3332 2.27208 57.2773 1.54553 57.5719 1.25126C57.9017 0.921794 58.2866 1.33494 58.1005 1.81879ZM53.3555 1.65453C53.3555 1.82435 53.1468 1.9633 52.8918 1.9633C52.6368 1.9633 52.4281 1.82435 52.4281 1.65453C52.4281 1.4847 52.6368 1.34575 52.8918 1.34575C53.1468 1.34575 53.3555 1.4847 53.3555 1.65453ZM55.7566 2.02444C55.6023 2.4873 55.0663 2.35453 54.9559 1.82621C54.8873 1.49612 55.0113 1.40719 55.3556 1.53935C55.6302 1.64464 55.8107 1.86295 55.7566 2.02444ZM62.3979 1.84473C63.0597 2.07786 63.1126 2.58086 62.4752 2.58086C62.2201 2.58086 62.0114 2.44191 62.0114 2.27208C62.0114 2.10225 61.7416 1.9633 61.4114 1.9633C61.0812 1.9633 60.7254 2.10225 60.6203 2.27208C60.3875 2.64817 59.8475 2.68121 59.8475 2.31932C59.8475 1.96948 61.1576 1.35532 61.5477 1.52206C61.7178 1.59462 62.1005 1.73975 62.3979 1.84473ZM52.1189 2.27208C52.1189 2.44191 51.9882 2.58086 51.828 2.58086C51.6679 2.58086 51.4512 2.44191 51.3461 2.27208C51.241 2.10225 51.3721 1.9633 51.637 1.9633C51.9019 1.9633 52.1189 2.10225 52.1189 2.27208ZM53.2136 2.60155C53.5462 3.13913 53.1675 3.25307 52.7434 2.74266C52.4995 2.44932 52.476 2.27208 52.6813 2.27208C52.8618 2.27208 53.1017 2.4203 53.2136 2.60155ZM61.7023 2.54782C61.7023 2.69943 61.4936 2.90353 61.2386 3.00142C60.7675 3.18205 60.6055 2.8529 60.9811 2.47804C61.2763 2.18285 61.7023 2.22422 61.7023 2.54782ZM58.92 3.81597C58.92 3.9858 59.0675 4.12475 59.2474 4.12475C59.4273 4.12475 59.4889 3.9858 59.3838 3.81597C59.2786 3.64615 59.1315 3.5072 59.0564 3.5072C58.9812 3.5072 58.92 3.64615 58.92 3.81597ZM52.9295 6.22537C52.8309 6.3847 52.3335 6.59838 51.8243 6.70027C51.1748 6.82996 50.8413 7.11434 50.7059 7.65378C50.5995 8.0765 50.3145 8.5866 50.0721 8.78731C49.8103 9.00438 49.711 9.40115 49.827 9.76644C50.0069 10.3327 49.9175 10.3658 48.6748 10.1919C46.9343 9.94831 46.0001 10.6335 46.087 12.09C46.1584 13.2899 46.2867 13.4378 47.3069 13.4968C47.7431 13.5218 48.0955 13.612 48.0899 13.6969C48.0624 14.1387 47.1915 14.932 46.734 14.932C46.445 14.932 46.2929 15.0682 46.3958 15.2343C46.4988 15.4007 46.4425 15.7994 46.2703 16.1202C46.0984 16.441 46.0573 16.8038 46.1788 16.9264C46.3003 17.049 46.3998 17.4495 46.3998 17.816C46.3998 18.185 46.5726 18.4484 46.7863 18.4057C46.999 18.3634 47.1727 18.537 47.1727 18.7917C47.1727 19.0465 47.3984 19.2549 47.6741 19.2549C48.1075 19.2549 48.118 19.1814 47.7514 18.7145C47.5183 18.4172 47.2333 18.1028 47.1186 18.0158C46.6444 17.656 46.7 15.1034 47.1755 15.397C47.347 15.5029 47.7298 15.1648 48.0256 14.6454C48.3218 14.1261 48.7005 13.7457 48.8677 13.8003C49.2316 13.9189 49.955 12.6155 49.955 11.842C49.955 10.5165 47.7721 11.0778 47.1758 12.5569C46.9232 13.1828 46.8193 13.0679 46.7399 12.0758C46.7229 11.8637 46.5965 11.6071 46.4586 11.5058C45.921 11.1106 47.6549 10.4007 48.817 10.5399C50.3377 10.7224 50.7083 11.5518 50.0814 13.3693C49.8356 14.0816 49.7151 14.794 49.8131 14.9524C49.9111 15.1111 49.6387 15.2408 49.2075 15.2408C48.3193 15.2408 47.3059 16.4987 47.5928 17.2454C47.8547 17.9271 48.6776 17.8154 49.8239 16.9421C50.3788 16.5194 50.8907 16.2761 50.9615 16.4018C51.0323 16.5274 51.0487 16.4589 50.998 16.2492C50.87 15.7222 51.8837 14.01 52.3251 14.0075C52.5233 14.0066 52.7431 13.8334 52.8136 13.6225C52.9045 13.3498 53.1032 13.4008 53.502 13.7991C53.8545 14.1511 54.3151 14.2959 54.7423 14.1888C55.2403 14.0637 55.5099 14.202 55.7517 14.7069C56.4469 16.1569 56.4556 16.4759 55.8008 16.4759C55.4558 16.4759 55.2598 16.3369 55.3649 16.1671C55.47 15.9973 55.4169 15.8583 55.2468 15.8583C54.5828 15.8583 54.5902 16.495 55.257 16.7414C55.9223 16.9872 55.8997 17.0221 54.8505 17.3679C53.6424 17.7663 52.5728 18.7395 52.8504 19.1882C52.9462 19.3426 52.6272 19.8493 52.1418 20.3137C51.6234 20.8096 51.1788 21.0279 51.0642 20.8426C50.9312 20.628 50.5717 20.6302 49.9417 20.8497C48.2884 21.4253 47.9125 23.269 49.4486 23.269C50.3043 23.269 50.8032 24.1265 50.1037 24.3948C49.4613 24.6409 48.0355 24.2407 48.2602 23.8776C48.3623 23.7127 48.3147 23.5778 48.1545 23.5778C47.6593 23.5778 47.5019 21.9147 47.9499 21.4157C48.5428 20.7552 49.0671 19.2598 48.8365 18.8871C48.5583 18.4376 48.0772 19.2901 48.2661 19.8978C48.3496 20.1664 48.1378 20.6398 47.7953 20.9492C45.9142 22.6496 48.6294 26.1882 50.5429 24.5304C51.3031 23.8717 50.8629 22.9602 49.7849 22.9602C49.3438 22.9602 49.0275 22.7808 49.0275 22.5301C49.0275 22.0018 49.7855 21.6794 50.4391 21.9301C50.7408 22.0456 51.3402 21.7223 52.0311 21.0711C52.6408 20.4968 53.0618 20.2479 52.9669 20.5181C52.7385 21.1687 53.1496 21.7903 53.8625 21.8724C55.1946 22.0256 56.4469 22.4412 56.4469 22.7305C56.4469 22.913 56.893 22.9686 57.5289 22.8657C58.5005 22.7083 58.6109 22.762 58.6109 23.395C58.6109 23.7825 58.8542 24.3121 59.1519 24.5714C59.742 25.0862 62.5475 25.5043 62.7892 25.1136C62.8715 24.9806 63.4765 24.9438 64.1334 25.0318C65.1359 25.1661 65.4092 25.0757 65.8337 24.4705C66.4643 23.5713 66.4705 23.135 65.8609 22.5264C65.4816 22.1475 65.455 21.9129 65.7326 21.3947C65.9252 21.0353 65.9987 20.4069 65.8961 19.9981C65.7072 19.2462 66.127 18.9705 66.5122 19.593C66.6306 19.7848 66.9577 19.4037 67.2671 18.7136C67.5673 18.0439 68.0725 17.3905 68.3899 17.2617C68.943 17.0369 68.9415 17.0172 68.3488 16.7887C67.9878 16.6497 67.3126 16.7211 66.7258 16.9607C65.6074 17.417 65.6905 17.5551 65.5833 15.0685L65.5292 13.8155L66.8446 14.2879C68.5108 14.8863 68.8002 14.6013 67.7689 13.3776C67.3228 12.8477 66.9577 12.1193 66.9577 11.7587C66.9577 11.2615 66.8711 11.1896 66.5991 11.4613C66.3274 11.7327 66.4405 12.1206 67.0675 13.067C67.5219 13.7531 67.7874 14.3089 67.6576 14.3021C67.5278 14.2953 66.6563 13.8787 65.7211 13.3761C64.786 12.8731 63.8471 12.4618 63.6344 12.4618C63.4221 12.4618 63.248 12.1873 63.248 11.8519C63.248 11.3292 63.3584 11.2838 64.019 11.5348C64.4428 11.6957 65.1384 12.0557 65.5647 12.3345C66.0371 12.6436 66.3394 12.7072 66.3394 12.4973C66.3394 12.308 66.2247 12.153 66.0844 12.153C65.944 12.153 65.8398 11.6321 65.8525 10.9951C65.8686 10.1858 66.085 9.66763 66.5713 9.27425C67.997 8.12065 66.9889 5.97279 65.0256 5.98205C64.4728 5.98483 63.8168 6.11575 63.5677 6.27323C63.274 6.45881 62.9568 6.42978 62.6671 6.1914C62.3255 5.9098 62.1911 5.90887 62.0974 6.18677C62.0201 6.41558 61.5938 6.48845 60.9458 6.38347C59.2487 6.10834 57.8575 8.05612 59.0468 9.04205C59.4088 9.34218 59.2687 9.60279 58.2192 10.5807C57.3873 11.3557 56.7573 11.7059 56.3746 11.6061C56.0552 11.5225 55.8633 11.2727 55.9486 11.051C56.0339 10.8293 55.8679 10.6011 55.5798 10.5439C55.2212 10.4729 55.1699 10.3686 55.4172 10.2129C55.6163 10.0882 55.9897 10.1966 56.2478 10.4541C56.5056 10.7119 56.7959 10.7944 56.8927 10.6378C56.9898 10.4813 56.9069 10.2991 56.7084 10.233C56.4512 10.1475 56.4392 9.95047 56.6667 9.54443C56.927 9.07972 56.7984 8.81231 55.9597 8.0768C55.3529 7.54447 55.0038 6.99546 55.1052 6.73177C55.2196 6.43379 55.0691 6.2862 54.6505 6.2862C54.3061 6.2862 53.8183 6.20715 53.5666 6.11082C53.315 6.01417 53.0281 6.06573 52.9295 6.22537ZM54.4523 7.37001C54.3979 7.86591 54.503 8.03512 54.7955 7.92303C55.0768 7.81527 55.1566 7.91964 55.0348 8.23644C54.8987 8.5903 55.0072 8.67089 55.4601 8.55263C55.7946 8.46525 56.1538 8.53225 56.2583 8.70177C56.5536 9.17853 56.1347 9.97116 55.6796 9.7967C55.0953 9.57253 54.7806 10.2463 55.2215 10.7771C55.6348 11.2742 55.2963 11.3693 54.6251 10.9447C54.3556 10.7743 54.2628 10.4007 54.3778 9.94584C54.5435 9.29 54.5219 9.27209 54.1562 9.75996C53.6405 10.4479 53.1209 10.4522 52.9895 9.76984C52.9008 9.31037 52.7941 9.33909 52.1938 9.98228C51.6277 10.5893 51.5007 10.6295 51.5007 10.2012C51.5007 9.9128 51.7758 9.4413 52.1124 9.15351C52.5248 8.80089 52.6108 8.56035 52.3765 8.41584C51.9684 8.16388 52.2568 7.21253 52.7409 7.21253C52.9239 7.21253 53.051 7.38638 53.0232 7.59851C52.9273 8.33587 53.0482 8.75643 53.3555 8.75643C53.8486 8.75643 53.7129 7.21161 53.2028 7.01615C52.4893 6.74257 52.9388 6.35135 53.7812 6.51222C54.3494 6.62061 54.512 6.82841 54.4523 7.37001ZM66.3394 6.90376C67.137 7.7004 67.1283 8.64341 66.3196 9.0757C65.8442 9.32983 65.5666 9.32149 65.2299 9.04235C64.8351 8.71505 64.8404 8.59895 65.2723 8.12251C65.7286 7.61889 65.7162 7.56145 65.1103 7.36939C64.7075 7.24156 64.1516 7.3592 63.6697 7.67477C62.5534 8.40534 62.3073 7.9218 63.3426 7.0319C64.3977 6.12471 65.5118 6.07716 66.3394 6.90376ZM61.7453 7.18598C62.1469 7.51112 62.3775 7.87487 62.2581 7.99467C62.1385 8.11448 61.8086 7.98047 61.5249 7.69701C61.2411 7.41355 60.7941 7.22334 60.531 7.27429C59.8691 7.40274 59.679 8.13887 60.3081 8.13887C60.6293 8.13887 60.7814 8.34019 60.7161 8.67923C60.5752 9.40949 59.8629 9.36194 59.3482 8.58783C58.9899 8.04871 58.9986 7.85572 59.4054 7.27552C59.9921 6.43843 60.7848 6.40817 61.7453 7.18598ZM62.6297 6.90376C62.6297 7.07358 62.4906 7.21253 62.3206 7.21253C62.1506 7.21253 62.0114 7.07358 62.0114 6.90376C62.0114 6.73393 62.1506 6.59498 62.3206 6.59498C62.4906 6.59498 62.6297 6.73393 62.6297 6.90376ZM51.6534 7.52317C51.3449 7.86406 51.0252 8.07557 50.9433 7.99374C50.7355 7.78624 51.5065 6.90376 51.8954 6.90376C52.071 6.90376 51.9622 7.18258 51.6534 7.52317ZM61.2513 7.85078C61.5839 8.38836 61.2052 8.5023 60.7811 7.99189C60.5372 7.69855 60.5137 7.52131 60.7189 7.52131C60.8995 7.52131 61.1394 7.66953 61.2513 7.85078ZM64.7965 7.98108C64.5863 8.23397 64.2889 8.36335 64.1352 8.26856C63.7408 8.02493 64.1182 7.52131 64.6951 7.52131C65.0883 7.52131 65.1072 7.60715 64.7965 7.98108ZM51.8002 8.37045C51.7838 8.75519 50.2375 9.75934 50.0112 9.53208C49.8953 9.41598 50.1287 9.05502 50.5303 8.72987C51.2855 8.11818 51.8169 7.96781 51.8002 8.37045ZM64.5974 9.08775C65.1919 9.55462 65.412 10.011 65.412 10.7761C65.412 11.5814 65.3044 11.7837 64.9483 11.6472C64.6932 11.5493 64.4846 11.2143 64.4846 10.9024C64.4846 10.3105 63.3992 9.37398 62.7135 9.37398C62.4953 9.37398 62.0142 9.72136 61.6445 10.1459C61.0445 10.8354 60.1566 11.1948 60.1566 10.748C60.1566 10.3244 61.1109 8.79626 61.464 8.65422C62.3772 8.28739 63.8357 8.48902 64.5974 9.08775ZM51.1322 10.7635C51.1096 11.3579 50.9909 11.8442 50.8685 11.8442C50.5516 11.8442 50.2743 10.6326 50.4728 10.1163C50.7859 9.30142 51.1727 9.68153 51.1322 10.7635ZM63.7018 15.196C64.1927 15.2896 64.241 15.2284 63.9513 14.8801C63.4916 14.3265 63.8137 13.8318 64.7937 13.587C65.2188 13.4807 65.387 13.4755 65.1672 13.5752C64.8685 13.7111 64.8552 13.8621 65.1143 14.1739C65.3508 14.4586 65.3635 14.7649 65.1535 15.1395C64.9514 15.5001 64.9504 15.8824 65.1505 16.256C65.6741 17.2336 64.262 18.2912 63.6827 17.3553C63.5618 17.1598 63.7275 16.8013 64.0508 16.5593C64.6091 16.1409 64.5999 16.1236 63.8663 16.2199C63.1049 16.32 63.0922 16.3684 63.005 19.5235C62.9361 22.0166 63.0233 22.8883 63.3986 23.4604C63.9318 24.2738 65.1029 24.4603 65.1029 23.7322C65.1029 23.4774 64.8942 23.269 64.6391 23.269C64.3841 23.269 64.1754 23.051 64.1754 22.7842C64.1754 21.978 65.5483 22.3686 65.6676 23.2088C65.8915 24.7854 64.0611 25.3956 63.031 24.0876L62.4597 23.3623L61.9119 24.0876C61.6108 24.4865 61.0689 24.8129 60.7075 24.8129C59.8169 24.8129 58.92 23.9459 58.92 23.085C58.92 22.2235 58.4189 21.8613 57.8637 22.3214C57.4566 22.6589 56.4469 22.4745 56.4469 22.0626C56.4469 21.6183 57.2148 21.1076 57.8823 21.1076C58.2637 21.1076 58.7834 21.4037 59.0375 21.7656C59.2966 22.1355 59.6941 22.3489 59.9445 22.2531C60.1897 22.159 60.5356 22.2272 60.7131 22.4044C61.1415 22.8324 60.8327 23.5778 60.2265 23.5778C59.9615 23.5778 59.8413 23.6744 59.9594 23.7927C60.416 24.2485 61.1063 24.1135 61.5493 23.4821C61.9233 22.9485 62.0114 21.6041 62.0114 16.433C62.0114 11.5963 62.1054 10.0113 62.3979 9.91311C62.6798 9.81832 62.826 10.5004 62.9389 12.4315C63.0746 14.7551 63.1682 15.0944 63.7018 15.196ZM53.8882 11.0621C54.585 11.2365 54.6493 11.3245 54.2449 11.5506C53.9534 11.7136 53.324 11.7077 52.7035 11.5364C51.773 11.2791 51.7192 11.2949 52.2244 11.6772C52.6105 11.9693 52.7279 12.3136 52.5898 12.748C52.4779 13.1 52.2914 13.3986 52.1755 13.4119C52.0593 13.4248 51.7211 13.482 51.4234 13.5388C50.6493 13.6867 50.743 12.9079 51.6948 11.2856C52.336 10.1929 52.5632 10.0008 52.7728 10.375C52.919 10.6357 53.4207 10.9447 53.8882 11.0621ZM59.8453 10.7045C59.8441 10.9068 59.3572 11.403 58.7633 11.8068C58.1694 12.2107 57.6835 12.6625 57.6835 12.8104C57.6835 12.9583 57.5444 13.0793 57.3743 13.0793C56.7567 13.0793 57.0899 12.308 58.1976 11.1754C59.2783 10.0697 59.8499 9.90632 59.8453 10.7045ZM64.1207 10.7107C64.1903 11.0689 64.0731 11.168 63.7343 11.0383C63.1627 10.8191 63.0659 9.87945 63.6344 10.0687C63.8471 10.1391 64.0657 10.4282 64.1207 10.7107ZM49.5101 12.4022C49.3048 13.0484 48.4093 13.5916 48.4093 13.0697C48.4093 12.9052 48.5484 12.7705 48.7184 12.7705C48.8884 12.7705 49.0275 12.3954 49.0275 11.9368C49.0275 11.3307 49.1203 11.1958 49.3673 11.4425C49.5543 11.6293 49.6186 12.061 49.5101 12.4022ZM61.7023 11.8442C61.7023 12.241 61.4961 12.4618 61.1261 12.4618C60.547 12.4618 58.92 13.859 58.92 14.3564C58.92 14.5031 58.7064 14.6232 58.4455 14.6232C58.0495 14.6232 58.0322 14.508 58.3416 13.9285C58.669 13.3146 58.656 13.2797 58.231 13.6299C57.9663 13.8479 57.5818 14.4318 57.3762 14.9277C57.0488 15.7172 57.0881 15.9494 57.6934 16.7986C58.2136 17.5282 58.4477 17.6659 58.64 17.355C58.9794 16.8069 59.8237 17.8793 59.8376 18.876C59.8471 19.5525 59.82 19.56 59.0802 19.0758C58.6579 18.7994 58.0161 18.0942 57.6538 17.5084C57.2912 16.9227 56.9258 16.5123 56.8417 16.5963C56.6166 16.8211 57.881 18.5015 58.89 19.3188C59.3841 19.719 59.8462 20.4634 59.9526 21.0304C60.1804 22.2426 60.1022 22.2602 59.0712 21.2305C58.5237 20.6836 58.0594 20.4814 57.617 20.5968C56.663 20.846 55.5127 19.8669 55.9486 19.1768C56.2033 18.7732 56.1603 18.5274 55.7649 18.1325C55.2815 17.6499 55.2981 17.5764 56.0206 17.0088C56.4568 16.6661 56.7202 16.21 56.625 15.9621C56.4299 15.4548 57.5802 13.5351 58.6511 12.5813C60.2673 11.1414 61.7023 10.795 61.7023 11.8442ZM48.7184 11.9242C48.7184 12.1382 48.4402 12.4868 48.1001 12.6989C47.4049 13.1327 47.3359 13.0021 47.8018 12.1326C48.1623 11.4598 48.7184 11.3335 48.7184 11.9242ZM54.5921 12.9249C54.5921 13.5193 54.453 14.0057 54.2829 14.0057C53.9401 14.0057 53.8542 12.3753 54.18 12.0502C54.5358 11.6948 54.5921 11.8143 54.5921 12.9249ZM55.7751 12.9052C55.8466 13.5113 55.7554 13.7241 55.466 13.6277C55.2403 13.5527 55.0493 13.1185 55.0412 12.6628C55.0224 11.5833 55.6438 11.7883 55.7751 12.9052ZM56.842 12.978C57.0197 13.9075 56.8333 14.6232 56.4138 14.6232C56.262 14.6232 56.1378 14.4148 56.1378 14.16C56.1378 13.9053 56.3047 13.6969 56.5087 13.6969C56.7972 13.6969 56.7972 13.6144 56.5087 13.3263C56.084 12.9021 55.9977 11.7213 56.4101 11.9757C56.5597 12.0684 56.7542 12.5192 56.842 12.978ZM53.6646 12.4618C53.6646 12.6316 53.5255 12.7705 53.3555 12.7705C53.1855 12.7705 53.0464 12.6316 53.0464 12.4618C53.0464 12.2919 53.1855 12.153 53.3555 12.153C53.5255 12.153 53.6646 12.2919 53.6646 12.4618ZM61.3932 16.7461C61.3932 18.9325 61.4735 21.1906 61.5715 21.7637L61.7499 22.8058L60.9533 21.9394C60.1835 21.1023 60.1566 20.9396 60.1566 17.1021C60.1566 13.2297 60.2354 12.8922 61.1613 12.7949C61.289 12.7817 61.3932 14.5596 61.3932 16.7461ZM64.1754 13.0793C64.1754 13.2492 64.0447 13.3881 63.8845 13.3881C63.7244 13.3881 63.5077 13.2492 63.4026 13.0793C63.2975 12.9095 63.4286 12.7705 63.6935 12.7705C63.9584 12.7705 64.1754 12.9095 64.1754 13.0793ZM51.5007 14.3589C51.5007 14.4713 50.8997 15.2266 50.1649 16.0371C49.1716 17.133 48.6872 17.4563 48.2748 17.2982C47.7724 17.1058 47.7638 17.0212 48.1817 16.395C48.4433 16.0031 48.9608 15.7039 49.3762 15.7039C49.9995 15.7039 50.1237 15.5313 50.2051 14.5547C50.2922 13.5023 50.351 13.4369 50.9006 13.7799C51.2305 13.9859 51.5007 14.2462 51.5007 14.3589ZM52.7876 14.2832C52.2976 14.5859 52.7422 15.8071 53.6016 16.5203C54.1815 17.0014 54.2112 16.9912 54.171 16.3283C54.1475 15.9432 53.9725 15.6882 53.7818 15.7611C53.3091 15.9423 52.9372 14.8814 53.3781 14.6093C53.5719 14.4895 53.6047 14.3138 53.451 14.219C53.2974 14.1242 52.9988 14.1529 52.7876 14.2832ZM59.6008 14.8934C59.4236 15.0027 59.2329 15.296 59.1766 15.5452C59.1207 15.7941 58.8938 16.1918 58.6724 16.429C58.3305 16.7958 58.2053 16.7739 57.8328 16.282C57.2553 15.5193 57.4102 15.1102 58.3259 14.9795C58.7376 14.9206 59.2032 14.6464 59.3606 14.3697C59.581 13.9825 59.6784 13.9621 59.7847 14.2808C59.8608 14.5084 59.7779 14.7841 59.6008 14.8934ZM51.8815 16.4759C51.8815 17.0703 51.9452 17.3136 52.0228 17.0162C52.1007 16.7189 52.1007 16.2329 52.0228 15.9355C51.9452 15.6382 51.8815 15.8815 51.8815 16.4759ZM59.8475 16.5376C59.8475 17.2559 59.7547 17.4331 59.5077 17.1864C59.3207 16.9996 59.2604 16.5549 59.3739 16.1983C59.6691 15.2692 59.8475 15.397 59.8475 16.5376ZM52.4281 16.4759C52.4281 16.6457 52.5755 16.7847 52.7555 16.7847C52.9354 16.7847 52.9969 16.6457 52.8918 16.4759C52.7867 16.3061 52.6395 16.1671 52.5644 16.1671C52.4893 16.1671 52.4281 16.3061 52.4281 16.4759ZM67.2047 18.0377C66.8204 18.557 66.455 18.8291 66.3926 18.6423C66.3107 18.3971 66.1666 18.3962 65.8732 18.6395C65.5792 18.8831 65.408 18.881 65.254 18.6318C65.0039 18.2276 64.99 18.243 66.1848 17.6097C67.6492 16.8334 67.9902 16.9767 67.2047 18.0377ZM50.8824 17.711C50.8824 17.8808 51.0215 18.0198 51.1915 18.0198C51.3615 18.0198 51.5007 17.8808 51.5007 17.711C51.5007 17.5412 51.3615 17.4022 51.1915 17.4022C51.0215 17.4022 50.8824 17.5412 50.8824 17.711ZM51.9644 18.3286C52.0695 18.4984 52.2166 18.6373 52.2918 18.6373C52.3669 18.6373 52.4281 18.4984 52.4281 18.3286C52.4281 18.1587 52.2806 18.0198 52.1007 18.0198C51.9208 18.0198 51.8593 18.1587 51.9644 18.3286ZM55.4156 18.5036C55.5179 18.7698 55.4441 19.145 55.2515 19.3373C54.7466 19.8416 54.8171 20.0874 55.5195 20.2708C56.1851 20.4446 56.3035 20.9853 55.8367 21.7226C55.6045 22.0895 55.4669 22.1049 55.1615 21.7998C54.9504 21.5889 54.4415 21.4163 54.0304 21.4163C53.426 21.4163 53.3196 21.2984 53.4739 20.7988C53.579 20.4591 53.7503 19.9033 53.8554 19.5637C53.975 19.1758 53.9033 18.9461 53.6628 18.9461C53.3589 18.9461 53.3595 18.8504 53.6646 18.4829C54.1679 17.8774 55.1797 17.8895 55.4156 18.5036ZM64.8107 18.6543C65.676 19.5186 65.5635 21.8162 64.6469 21.99C64.3111 22.0537 63.8632 22.3328 63.6521 22.6104C63.3049 23.0658 63.2669 23.0668 63.2579 22.6221C63.2523 22.3513 63.5262 21.878 63.8663 21.5707C64.5854 20.9207 64.7022 19.5637 64.0391 19.5637C63.4666 19.5637 63.1454 19.0412 63.3655 18.4681C63.6038 17.8481 64.0629 17.9074 64.8107 18.6543ZM51.3461 18.9461C51.4512 19.1159 51.5984 19.2549 51.6735 19.2549C51.7486 19.2549 51.8098 19.1159 51.8098 18.9461C51.8098 18.7763 51.6623 18.6373 51.4824 18.6373C51.3025 18.6373 51.241 18.7763 51.3461 18.9461ZM50.5732 19.2549C50.5732 19.4247 50.7207 19.5637 50.9006 19.5637C51.0805 19.5637 51.1421 19.4247 51.0369 19.2549C50.9318 19.0851 50.7847 18.9461 50.7096 18.9461C50.6344 18.9461 50.5732 19.0851 50.5732 19.2549ZM64.1754 20.1559C64.1754 20.6904 63.8001 21.4163 63.5241 21.4163C63.2038 21.4163 63.1497 20.3825 63.4542 20.0784C63.7525 19.7801 64.1754 19.8258 64.1754 20.1559ZM64.33 23.5778C64.4351 23.7476 64.3819 23.8866 64.2119 23.8866C64.0419 23.8866 63.8168 23.7476 63.7117 23.5778C63.6066 23.408 63.6598 23.269 63.8298 23.269C63.9998 23.269 64.2249 23.408 64.33 23.5778ZM48.3765 32.3008C47.9727 33.3624 47.5947 34.3347 47.5365 34.4622C47.4781 34.5897 49.32 34.6938 51.6296 34.6938C53.9389 34.6938 55.8286 34.7994 55.8286 34.9282C55.8286 35.0569 54.4947 37.8708 52.864 41.1809C51.2336 44.491 49.4773 48.1025 48.9611 49.2064C48.4448 50.3103 47.4818 52.2905 46.8212 53.6065L45.6202 55.9995H53.3187H61.0172L61.4522 54.224L61.8869 52.4486L64.1903 52.4124L66.494 52.3766L66.9877 50.5598L67.4814 48.7432L69.4608 48.8528C70.5496 48.9131 71.494 49.0131 71.5596 49.0752C71.6254 49.1369 71.8443 49.9215 72.0459 50.8182L72.4128 52.4486L74.9406 52.5381C76.3308 52.5875 77.4685 52.544 77.4685 52.4415C77.4685 52.238 75.8452 46.0908 74.3718 40.715C73.8599 38.8469 73.2991 36.6931 73.126 35.9289C72.9529 35.1647 72.7114 34.3822 72.5896 34.1902C72.4675 33.9981 71.0946 33.7415 69.539 33.6196L66.7101 33.3979L66.1749 35.2039C65.8807 36.1969 65.5357 37.4265 65.4086 37.936C65.2815 38.4455 64.4833 41.3634 63.6344 44.4203C62.7858 47.4772 62.0012 50.3606 61.8909 50.8275L61.6906 51.6766H57.8065C55.67 51.6766 53.9735 51.5726 54.0359 51.445C54.0984 51.3175 54.6496 50.1713 55.261 48.8976C55.8728 47.6239 58.1286 42.9965 60.2744 38.6144C62.4198 34.2322 64.1754 30.5846 64.1754 30.5089C64.1754 30.433 60.7857 30.3709 56.6429 30.3709H49.1104L48.3765 32.3008ZM111.323 33.5109C110.409 34.2291 110.318 35.3178 111.112 36.0354C111.872 36.7225 112.886 36.6799 113.638 35.9289C114.375 35.1931 114.41 34.7426 113.802 33.8746C113.144 32.9369 112.225 32.8019 111.323 33.5109ZM8.37552 33.8882C2.7371 35.659 -0.537935 42.3308 1.28259 48.3372C1.97631 50.6261 3.93626 52.9191 6.16145 54.0452C8.39005 55.1732 11.4601 55.1794 13.8031 54.0607C14.7287 53.6188 15.6944 53.0754 15.9495 52.8527C16.974 51.9598 18.7314 49.7986 18.7277 49.437C18.724 49.0863 14.7488 46.2208 14.6155 46.4731C14.584 46.533 14.2801 47.1332 13.9401 47.8073C13.2408 49.1934 11.5937 50.4415 10.4631 50.4415C9.13261 50.4415 7.73282 49.543 6.9578 48.1917C6.33952 47.1138 6.21153 46.4666 6.21153 44.4203C6.21153 42.3611 6.33797 41.7293 6.97264 40.6227C8.91033 37.2425 12.2849 37.2885 14.2705 40.7221C14.5738 41.2464 14.7652 41.1578 16.5891 39.6485C17.6825 38.7437 18.6174 37.9026 18.6662 37.7797C18.7154 37.6568 17.9771 36.846 17.0259 35.9774C14.4832 33.6563 11.4481 32.9233 8.37552 33.8882ZM40.0485 33.5745C39.9713 33.6511 39.9774 36.0883 40.0625 38.9905C40.1475 41.8927 40.137 44.2669 40.039 44.2666C39.941 44.2662 38.7199 41.9038 37.325 39.0167L34.7894 33.7675L32.8663 33.7718C31.8084 33.774 30.6299 33.8598 30.2472 33.962L29.5517 34.1482V43.5659V52.9837L30.2472 52.7975C30.6299 52.6953 31.7639 52.6094 32.767 52.6073L34.5916 52.6029L34.4166 47.1993C34.3205 44.2273 34.3344 41.7976 34.4472 41.7997C34.5601 41.8019 35.8557 44.1986 37.3259 47.1261L39.9994 52.4486L41.521 52.4804C42.3578 52.498 43.4871 52.447 44.0303 52.3677L45.0177 52.2228L44.9357 42.9178L44.8541 33.6131L42.5217 33.5242C41.2387 33.4751 40.1258 33.4976 40.0485 33.5745ZM113.461 33.9438C114.065 34.5468 114.065 34.6966 113.466 35.5513C112.813 36.4816 111.561 36.4566 111.126 35.5047C110.415 33.9456 112.241 32.725 113.461 33.9438ZM111.758 33.8221C111.46 35.0054 111.821 36.1624 112.198 35.2342C112.316 34.9433 112.439 34.9621 112.698 35.3114C112.974 35.6822 113.025 35.5902 112.954 34.851C112.897 34.2615 112.669 33.8901 112.324 33.8246C112.027 33.7684 111.772 33.7672 111.758 33.8221ZM21.6973 34.3041L20.4892 34.4283L20.6926 41.4039C20.8042 45.2407 20.8957 49.4688 20.8957 50.8003V53.2205L22.2096 53.2171C22.9323 53.2153 24.0452 53.1276 24.6827 53.0223L25.842 52.8308V43.4535V34.0762L24.3736 34.1281C23.5658 34.1568 22.3617 34.2359 21.6973 34.3041ZM79.3233 43.1852C79.3233 48.1951 79.2884 52.3982 79.246 52.5258C79.2037 52.6533 80.2436 52.7978 81.5575 52.8475L83.9462 52.9374L84.0306 47.4439L84.115 41.9501L84.7778 43.3396C90.1 54.4948 89.3404 53.5172 92.6937 53.525L94.4712 53.5293V44.1115V34.6938L93.6211 34.691C93.1537 34.6898 92.0197 34.5984 91.1019 34.4882L89.4328 34.2881L89.6557 39.8174C89.7865 43.0629 89.7646 45.2191 89.6026 45.0379C89.4511 44.8681 88.2346 42.3324 86.8994 39.4027L84.4721 34.0762H81.8979H79.3233V43.1852ZM112.711 34.385C112.711 34.5549 112.571 34.6938 112.401 34.6938C112.231 34.6938 112.092 34.5549 112.092 34.385C112.092 34.2152 112.231 34.0762 112.401 34.0762C112.571 34.0762 112.711 34.2152 112.711 34.385ZM102.045 35.3654C99.2277 36.4341 97.3697 38.5545 96.4303 41.7735C95.1198 46.2637 97.4272 51.7044 101.606 53.9761C105.04 55.843 109.539 54.9061 111.887 51.835C115.63 46.9378 113.772 38.8114 108.272 36.0274C106.476 35.1187 103.523 34.8047 102.045 35.3654ZM106.8 40.0628C107.938 41.0704 108.677 42.9768 108.685 44.9221C108.695 47.514 108.401 48.5252 107.298 49.6936C106.503 50.5351 106.062 50.7503 105.129 50.7503C104.171 50.7503 103.751 50.5323 102.81 49.5439C101.568 48.2405 101.201 47.0338 101.231 44.3617C101.277 40.1854 104.302 37.8504 106.8 40.0628ZM70.3153 42.7992L70.9094 45.501H69.531C68.3621 45.501 68.1773 45.4189 68.3158 44.9607C68.4444 44.5349 69.3443 40.3275 69.4549 39.6343C69.5056 39.3175 69.7378 40.1715 70.3153 42.7992Z" fill="#989AA9"/>
</svg>
