<svg width="80" height="80" viewBox="0 0 80 80" fill="none" xmlns="http://www.w3.org/2000/svg">
<path fill-rule="evenodd" clip-rule="evenodd" d="M40.982 14.7251C44.0505 14.2527 46.4001 11.6007 46.4001 8.39999C46.4001 4.86537 43.5348 2 40.0002 2C36.4655 2 33.6002 4.86537 33.6002 8.39999C33.6002 11.6008 35.9498 14.2528 39.0184 14.7251V19.6003C39.0184 19.6631 39.0243 19.7246 39.0356 19.7841L21.9608 28.3215C21.6282 28.4878 21.4181 28.8277 21.4181 29.1996V38.618H16.7254C16.253 35.5494 13.601 33.1998 10.4002 33.1998C6.86562 33.1998 4.00024 36.0651 4.00024 39.5997C4.00024 43.1344 6.86562 45.9997 10.4002 45.9997C13.601 45.9997 16.2529 43.6501 16.7254 40.5816H21.4181V49.9996C21.4181 50.3589 21.6143 50.6895 21.9297 50.8615L39.0399 60.1944C39.0258 60.2606 39.0184 60.3294 39.0184 60.3998V65.2749C35.9498 65.7472 33.6002 68.3992 33.6002 71.6C33.6002 75.1346 36.4655 78 40.0002 78C43.5348 78 46.4001 75.1346 46.4001 71.6C46.4001 68.3993 44.0505 65.7473 40.982 65.2749V60.3998C40.982 60.3292 40.9746 60.2604 40.9604 60.194L58.07 50.8615C58.3854 50.6895 58.5816 50.3589 58.5816 49.9996V40.5816H63.2749C63.7474 43.6501 66.3993 45.9997 69.6001 45.9997C73.1347 45.9997 76.0001 43.1344 76.0001 39.5997C76.0001 36.0651 73.1347 33.1998 69.6001 33.1998C66.3993 33.1998 63.7473 35.5494 63.2749 38.618H58.5816V29.1996C58.5816 28.8277 58.3715 28.4878 58.0389 28.3215L40.9648 19.7844C40.9761 19.7248 40.982 19.6632 40.982 19.6003V14.7251ZM44.4365 8.39999C44.4365 10.8501 42.4503 12.8363 40.0002 12.8363C37.55 12.8363 35.5638 10.8501 35.5638 8.39999C35.5638 5.94986 37.55 3.96363 40.0002 3.96363C42.4503 3.96363 44.4365 5.94986 44.4365 8.39999ZM23.3817 49.4168V39.6285C23.382 39.6189 23.3821 39.6094 23.3821 39.5998L23.3819 39.5812L23.3817 39.5712V30.7882L39.018 38.6064V57.9457L23.3817 49.4168ZM40.9817 57.9457L56.618 49.4168V30.7882L40.9817 38.6064V57.9457ZM39.9999 36.9019L55.4044 29.1996L39.9999 21.4974L24.5953 29.1996L39.9999 36.9019ZM10.4002 44.0361C12.8504 44.0361 14.8366 42.0499 14.8366 39.5997C14.8366 37.1496 12.8504 35.1634 10.4002 35.1634C7.9501 35.1634 5.96388 37.1496 5.96388 39.5997C5.96388 42.0499 7.9501 44.0361 10.4002 44.0361ZM69.6001 44.0361C72.0502 44.0361 74.0364 42.0499 74.0364 39.5997C74.0364 37.1496 72.0502 35.1634 69.6001 35.1634C67.1499 35.1634 65.1637 37.1496 65.1637 39.5997C65.1637 42.0499 67.1499 44.0361 69.6001 44.0361ZM44.4365 71.6C44.4365 74.0501 42.4503 76.0364 40.0002 76.0364C37.55 76.0364 35.5638 74.0501 35.5638 71.6C35.5638 69.1499 37.55 67.1637 40.0002 67.1637C42.4503 67.1637 44.4365 69.1499 44.4365 71.6Z" fill="url(#paint0_linear_43_1087)"/>
<defs>
<linearGradient id="paint0_linear_43_1087" x1="4.00024" y1="12.6875" x2="79.2777" y2="73.9741" gradientUnits="userSpaceOnUse">
<stop stop-color="#1E74EC"/>
<stop offset="1" stop-color="#002984"/>
</linearGradient>
</defs>
</svg>
